<?xml version="1.0" encoding="UTF-8"?>
<!DOCTYPE svg PUBLIC "-//W3C//DTD SVG 1.1//EN" "http://www.w3.org/Graphics/SVG/1.1/DTD/svg11.dtd">
<svg version="1.2" width="297mm" height="210mm" viewBox="0 0 29700 21000" preserveAspectRatio="xMidYMid" fill-rule="evenodd" stroke-width="28.222" stroke-linejoin="round" xmlns="http://www.w3.org/2000/svg" xmlns:ooo="http://xml.openoffice.org/svg/export" xmlns:xlink="http://www.w3.org/1999/xlink" xmlns:presentation="http://sun.com/xmlns/staroffice/presentation" xmlns:smil="http://www.w3.org/2001/SMIL20/" xmlns:anim="urn:oasis:names:tc:opendocument:xmlns:animation:1.0" xml:space="preserve">
 <defs class="ClipPathGroup">
  <clipPath id="presentation_clip_path" clipPathUnits="userSpaceOnUse">
   <rect x="0" y="0" width="29700" height="21000"/>
  </clipPath>
  <clipPath id="presentation_clip_path_shrink" clipPathUnits="userSpaceOnUse">
   <rect x="29" y="21" width="29641" height="20958"/>
  </clipPath>
 </defs>
 <defs class="TextShapeIndex">
  <g ooo:slide="id1" ooo:id-list="id3 id4 id5 id6"/>
 </defs>
 <defs class="EmbeddedBulletChars">
  <g id="bullet-char-template-57356" transform="scale(0.00048828125,-0.00048828125)">
   <path d="M 580,1141 L 1163,571 580,0 -4,571 580,1141 Z"/>
  </g>
  <g id="bullet-char-template-57354" transform="scale(0.00048828125,-0.00048828125)">
   <path d="M 8,1128 L 1137,1128 1137,0 8,0 8,1128 Z"/>
  </g>
  <g id="bullet-char-template-10146" transform="scale(0.00048828125,-0.00048828125)">
   <path d="M 174,0 L 602,739 174,1481 1456,739 174,0 Z M 1358,739 L 309,1346 659,739 1358,739 Z"/>
  </g>
  <g id="bullet-char-template-10132" transform="scale(0.00048828125,-0.00048828125)">
   <path d="M 2015,739 L 1276,0 717,0 1260,543 174,543 174,936 1260,936 717,1481 1274,1481 2015,739 Z"/>
  </g>
  <g id="bullet-char-template-10007" transform="scale(0.00048828125,-0.00048828125)">
   <path d="M 0,-2 C -7,14 -16,27 -25,37 L 356,567 C 262,823 215,952 215,954 215,979 228,992 255,992 264,992 276,990 289,987 310,991 331,999 354,1012 L 381,999 492,748 772,1049 836,1024 860,1049 C 881,1039 901,1025 922,1006 886,937 835,863 770,784 769,783 710,716 594,584 L 774,223 C 774,196 753,168 711,139 L 727,119 C 717,90 699,76 672,76 641,76 570,178 457,381 L 164,-76 C 142,-110 111,-127 72,-127 30,-127 9,-110 8,-76 1,-67 -2,-52 -2,-32 -2,-23 -1,-13 0,-2 Z"/>
  </g>
  <g id="bullet-char-template-10004" transform="scale(0.00048828125,-0.00048828125)">
   <path d="M 285,-33 C 182,-33 111,30 74,156 52,228 41,333 41,471 41,549 55,616 82,672 116,743 169,778 240,778 293,778 328,747 346,684 L 369,508 C 377,444 397,411 428,410 L 1163,1116 C 1174,1127 1196,1133 1229,1133 1271,1133 1292,1118 1292,1087 L 1292,965 C 1292,929 1282,901 1262,881 L 442,47 C 390,-6 338,-33 285,-33 Z"/>
  </g>
  <g id="bullet-char-template-9679" transform="scale(0.00048828125,-0.00048828125)">
   <path d="M 813,0 C 632,0 489,54 383,161 276,268 223,411 223,592 223,773 276,916 383,1023 489,1130 632,1184 813,1184 992,1184 1136,1130 1245,1023 1353,916 1407,772 1407,592 1407,412 1353,268 1245,161 1136,54 992,0 813,0 Z"/>
  </g>
  <g id="bullet-char-template-8226" transform="scale(0.00048828125,-0.00048828125)">
   <path d="M 346,457 C 273,457 209,483 155,535 101,586 74,649 74,723 74,796 101,859 155,911 209,963 273,989 346,989 419,989 480,963 531,910 582,859 608,796 608,723 608,648 583,586 532,535 482,483 420,457 346,457 Z"/>
  </g>
  <g id="bullet-char-template-8211" transform="scale(0.00048828125,-0.00048828125)">
   <path d="M -4,459 L 1135,459 1135,606 -4,606 -4,459 Z"/>
  </g>
  <g id="bullet-char-template-61548" transform="scale(0.00048828125,-0.00048828125)">
   <path d="M 173,740 C 173,903 231,1043 346,1159 462,1274 601,1332 765,1332 928,1332 1067,1274 1183,1159 1299,1043 1357,903 1357,740 1357,577 1299,437 1183,322 1067,206 928,148 765,148 601,148 462,206 346,322 231,437 173,577 173,740 Z"/>
  </g>
 </defs>
 <g>
  <g id="id2" class="Master_Slide">
   <g id="bg-id2" class="Background"/>
   <g id="bo-id2" class="BackgroundObjects"/>
  </g>
 </g>
 <g class="SlideGroup">
  <g>
   <g id="container-id1">
    <g id="id1" class="Slide" clip-path="url(#presentation_clip_path)">
     <g class="Page">
      <g class="com.sun.star.drawing.ClosedBezierShape">
       <g id="id3">
        <rect class="BoundingBox" stroke="none" fill="none" x="7938" y="2784" width="13826" height="15434"/>
        <path fill="rgb(27,25,24)" stroke="none" d="M 7938,2784 L 21763,2784 21423,12041 21422,12041 C 21292,15444 18410,18217 14881,18217 11338,18217 8445,15440 8308,12033 8308,12014 8307,11995 8307,11975 L 7938,2784 Z M 7938,2784 L 7938,2784 Z M 8131,2999 L 21570,2999 21239,11998 21238,11998 C 21112,15306 18311,18001 14881,18001 11438,18001 8624,15302 8491,11991 8491,11972 8490,11953 8490,11934 L 8131,2999 Z"/>
       </g>
      </g>
      <g class="Group">
       <g class="com.sun.star.drawing.ClosedBezierShape">
        <g id="id4">
         <rect class="BoundingBox" stroke="none" fill="none" x="9504" y="3627" width="10935" height="12807"/>
         <path fill="rgb(27,25,24)" stroke="none" d="M 15155,16409 C 15155,16221 15304,15981 15404,15848 15404,15816 15408,15784 15412,15752 15384,15756 15360,15760 15336,15768 15159,15904 15031,16001 14870,16189 14850,16189 14830,16193 14810,16197 14810,16113 14806,16085 14842,16049 14886,15912 14886,15912 14962,15768 14958,15748 14954,15728 14950,15712 14910,15708 14870,15704 14830,15704 14822,15712 14818,15720 14814,15728 14806,15736 14798,15744 14790,15756 14674,15756 14557,15760 14441,15764 14265,15764 14084,15788 13968,15688 13904,15624 13888,15620 13852,15608 13816,15592 13780,15576 13748,15564 13652,15524 13579,15520 13547,15496 13431,15439 13403,15383 13287,15367 13175,15347 13102,15351 13018,15355 12910,15371 12802,15407 12706,15395 12585,15399 12465,15403 12345,15407 12221,15407 12133,15375 12048,15335 11984,15271 11924,15291 11884,15287 11876,15291 11872,15295 11868,15303 11820,15283 11772,15263 11728,15243 11728,15227 11728,15211 11732,15195 11764,15179 11796,15167 11828,15155 11828,15115 11828,15115 11804,15055 11792,15055 11780,15055 11768,15055 11712,15171 11664,15215 11555,15255 11555,15263 11555,15271 11555,15283 11487,15303 11263,15399 11235,15399 11219,15283 11323,15035 11363,14942 11359,14922 11355,14902 11355,14886 11311,14882 11267,14882 11223,14882 10906,14926 10906,14926 10834,14950 10794,14983 10754,14983 10738,14967 10798,14850 10798,14850 10834,14806 10854,14730 10874,14694 10910,14642 10826,14618 10826,14618 10822,14606 10670,14598 10670,14598 10646,14586 10646,14566 10650,14546 10654,14530 10690,14514 10726,14498 10766,14482 10798,14458 10798,14458 10882,14433 10874,14417 10870,14405 10866,14393 10846,14237 10910,14165 10970,14061 11223,13977 11471,14033 11716,14205 11816,14261 11876,14233 12008,14205 12060,14193 12113,14173 12197,14173 12213,14169 12229,14165 12249,14165 12289,14153 12329,14141 12369,14133 12317,14105 12317,14105 12277,14101 12277,14069 12277,14037 12277,14005 12289,14005 12301,14005 12317,14005 12317,14005 12317,14009 12317,14013 12325,14005 12333,13997 12341,13993 12317,13924 12141,13836 12117,13832 12101,13812 12089,13792 12076,13772 12012,13612 11992,13596 12016,13452 12036,13367 12076,13311 12064,13243 11700,12649 11700,12649 11676,12581 11531,12485 11499,12252 11395,12148 11375,12132 11375,12132 11099,12108 11095,12096 11091,12088 11087,12080 10998,12052 11143,11944 11147,11940 11175,11843 11195,11815 11203,11747 11191,11747 11183,11747 11175,11747 11167,11731 11167,11731 11034,11719 11022,11711 11014,11703 11006,11695 11018,11310 11018,11310 11006,11286 10954,11134 10894,11210 10858,11286 10850,11282 10842,11278 10838,11278 10830,11286 10826,11294 10822,11306 10810,11302 10802,11298 10794,11298 10794,11294 10794,11294 10794,11294 10778,11234 10762,11174 10746,11114 10738,11082 10734,11050 10730,11018 10718,11014 10710,11010 10702,11006 10425,10922 10369,10938 10453,10725 10453,10677 10453,10677 10497,10541 10449,10529 10405,10517 10361,10505 10361,10493 10361,10481 10361,10473 10357,10461 10353,10449 10353,10437 10305,10381 10317,10300 10321,10256 10261,10208 10025,9932 10025,9876 10033,9799 10037,9755 10025,9715 9820,9639 9860,9463 9816,9343 9768,9266 9720,9190 9672,9114 9608,9066 9712,8942 9720,8942 9720,8822 9584,8689 9556,8613 9580,8517 9636,8445 9648,8373 9552,8285 9516,8285 9504,8200 9668,8052 9844,7892 10029,7748 10093,7671 10093,7671 10113,7667 10197,7591 10281,7515 10365,7439 10666,7174 11063,6862 11227,6504 10954,6324 11111,6111 11327,6015 11339,5999 11339,5999 11395,5987 11399,5907 11399,5851 11435,5803 11459,5670 11543,5646 11668,5634 11676,5466 11708,5430 11836,5346 11844,5330 11844,5330 11956,5322 11964,5242 11956,5214 11996,5174 12048,5025 12169,4989 12325,5045 12405,5045 12537,4945 12610,4905 12662,4829 12778,4797 12890,4781 13018,4757 13407,4693 13531,4584 13595,4556 13615,4532 13708,4512 13848,4432 13948,4376 14112,4332 14205,4332 14253,4304 14353,4384 14389,4496 14237,4532 14161,4564 14092,4632 14080,4765 14068,4881 14056,4949 14044,5021 14032,5093 14032,5113 14032,5133 14032,5153 14040,5153 14052,5153 14064,5157 14165,4997 14353,4745 14493,4624 14515,4605 14520,4603 14524,4602 14577,4579 14621,4580 14682,4673 14682,4705 14674,4837 14613,4865 14521,5013 14301,5186 14321,5366 14329,5434 14337,5502 14345,5574 14441,5566 14441,5566 14469,5546 14597,5570 14734,5674 14870,5783 14882,5779 14894,5775 14910,5775 14898,5739 14890,5703 14882,5666 14854,5606 14854,5606 14834,5462 15023,5274 14870,5053 14886,4909 14922,4897 14922,4897 14954,4865 14979,4817 15091,4829 15164,4821 15332,4797 15332,4797 16093,4608 16093,4300 15797,3847 15849,3627 16029,3627 16045,3631 16198,3783 16202,3823 16210,3863 16218,3903 16242,3915 16270,3927 16298,3943 16370,3983 16374,4023 16406,4131 16394,4139 16382,4148 16370,4156 16370,4204 16370,4252 16370,4304 16390,4320 16390,4320 16434,4324 16498,4328 16566,4332 16634,4340 16686,4332 16739,4324 16795,4320 16795,4304 16795,4292 16795,4280 16763,4272 16731,4264 16698,4260 16670,4244 16646,4232 16622,4220 16602,4099 16602,4099 16610,4027 16670,4011 16735,3999 16799,3987 16819,3851 16843,3823 16931,3735 17043,3791 17027,3863 17055,4019 17268,4035 17252,4031 17228,4244 17163,4252 17099,4260 17039,4272 17043,4292 17047,4316 17051,4340 17063,4344 17075,4348 17087,4352 17288,4364 17288,4364 17360,4352 17412,4123 17384,4023 17616,3967 17664,3903 17716,3843 17769,3783 17821,3767 17873,3755 17929,3743 18245,3819 17833,4075 17777,4312 17712,4312 17536,4648 17484,4721 17488,4753 17492,4785 17496,4821 17624,4889 17648,4901 17600,5113 17600,5294 17600,5294 17580,5394 17588,5430 17596,5466 17608,5506 17624,5518 17624,5518 17688,5723 17704,5775 17720,5827 17736,5883 17765,5831 17765,5831 17809,5674 17973,5402 18169,5133 18334,4865 18330,4853 18326,4845 18322,4837 18282,4829 18241,4821 18201,4813 18121,4813 18045,4813 17969,4813 17969,4801 17969,4793 17969,4785 17969,4697 18053,4681 18121,4628 18165,4496 18374,4488 18502,4344 18538,4344 18574,4344 18610,4344 18610,4336 18610,4328 18610,4320 18634,4320 18662,4320 18690,4320 18690,4328 18690,4336 18690,4344 18771,4344 18811,4356 18931,4384 19035,4476 19083,4524 19107,4717 19203,4717 19344,4588 19432,4528 19528,4380 19263,4184 19191,4139 19187,4119 19183,4099 19179,4083 19384,3967 19292,3915 19572,3903 19648,3907 19724,3911 19805,3915 19809,3923 19817,3931 19825,3939 19969,3939 20057,4079 20165,4220 20173,4240 20221,4336 20173,4384 20157,4576 20089,4785 20065,5013 20161,5089 20257,5165 20354,5242 20326,5622 20253,5735 19933,5927 19945,5955 20069,5983 20101,6115 20173,6095 20245,6075 20322,6055 20322,6047 20326,6043 20330,6039 20366,6039 20402,6039 20438,6043 20438,6087 20438,6087 20422,6103 20378,6224 20265,6348 20265,6488 20273,6492 20281,6500 20293,6508 20301,6508 20309,6508 20322,6508 20330,6540 20358,6568 20374,6628 20346,6640 20318,6652 20293,6668 20277,6684 20265,6700 20253,6716 20173,6765 20161,6793 20101,6842 20101,6878 20085,6902 20133,6950 20149,7018 20173,7118 20173,7218 20177,7427 20177,7427 20161,7463 20129,7471 20097,7479 20065,7491 20025,7495 19985,7503 19945,7511 19801,7583 19656,7495 19572,7551 19448,7699 19384,7687 19219,7667 19219,7591 19271,7559 19292,7511 19292,7499 19296,7491 19300,7483 19267,7487 19239,7491 19211,7499 19211,7507 19211,7515 19211,7527 19187,7527 19163,7527 19143,7527 19143,7535 19143,7543 19143,7551 19127,7555 19111,7559 19099,7563 19095,7579 19091,7599 19091,7619 19095,7631 19267,8008 19336,8040 19340,8060 19344,8084 19352,8108 19412,8128 19532,8072 19644,8072 19732,8108 19893,8192 19929,8341 19865,8377 19692,8445 19664,8533 20033,9266 20033,9266 20053,9331 20057,9391 20065,9451 20073,9515 20033,9635 19857,9799 19744,9836 19700,9896 19524,9908 19464,9912 19444,9912 19428,9912 19412,9912 19376,9972 19159,9944 19131,9944 19131,10056 19143,10160 19091,10304 18983,10497 18955,10565 18767,10697 18702,10797 18538,10817 18450,10846 18402,10866 18402,10866 18278,10886 18258,10886 18237,10890 18217,10894 18181,10858 18149,10874 18117,10874 18077,10858 18077,10858 17929,10854 17925,10902 17921,10954 17921,11006 17877,11178 17728,11254 17785,11467 17853,11467 17905,11395 17989,11371 17989,11415 17993,11459 17997,11507 17977,11643 17977,11643 17981,11707 18025,11711 18069,11719 18117,11727 18137,11731 18157,11739 18181,11747 18205,11948 18205,11948 18217,11948 18221,12092 18221,12092 18241,12160 18249,12200 18249,12200 18274,12216 18406,12120 18406,12120 18418,12096 18482,12040 18546,11988 18610,11936 18658,11924 18734,11839 18762,11799 18867,11735 18895,11703 19039,11679 19039,11671 19043,11667 19047,11663 19087,11663 19131,11663 19175,11667 19175,11671 19179,11679 19183,11687 19312,11699 19472,11747 19600,11876 19672,11839 19784,12056 19732,12188 19732,12224 19732,12260 19736,12300 19660,12328 19348,12184 19279,12156 19259,12160 19239,12164 19223,12168 19203,12204 19183,12240 19163,12280 19316,12381 19472,12453 19504,12681 19500,12793 19468,12918 19424,13042 19372,13130 19372,13130 19304,13210 19263,13251 19231,13239 19199,13243 19143,13214 19143,13226 19103,13230 19115,13315 19115,13315 19131,13323 19131,13359 19131,13399 19131,13440 19115,13464 19099,13488 19087,13516 19063,13516 19043,13520 19023,13524 18923,13524 18923,13524 18879,13540 18730,13540 18694,13552 18570,13592 18570,13600 18570,13608 18570,13620 18546,13668 18534,13724 18530,13792 18562,13792 18566,14021 18542,14085 18538,14085 18534,14085 18530,14085 18502,14101 18474,14117 18446,14137 18418,14129 18418,14129 18342,14065 18237,14045 18209,14037 18169,13985 18113,13997 18057,14009 18005,14021 18001,14081 17957,14261 17845,14205 17841,14185 17837,14165 17833,14149 17548,14209 17568,14602 17412,14654 17344,14758 17276,14862 17207,14967 17171,15131 17135,15287 17127,15488 17059,15520 17059,15520 16935,15540 16931,15548 16927,15556 16927,15568 16915,15568 16907,15568 16899,15568 16887,15604 16835,15652 16835,15688 16823,15688 16815,15688 16807,15688 16739,15764 16482,16029 16410,16045 16370,15984 16482,15768 16494,15708 16486,15692 16478,15680 16470,15668 16446,15676 16426,15684 16406,15696 16210,15868 16017,15956 15793,16057 15632,16069 15632,16069 15564,16089 15484,16161 15372,16221 15292,16289 15292,16349 15256,16405 15196,16433 15180,16425 15168,16417 15155,16409 Z M 15155,16409 L 15155,16409 Z M 10966,14474 C 10962,14454 10958,14438 10954,14421 10974,14377 10994,14333 11018,14289 11067,14289 11119,14269 11195,14325 11195,14361 11235,14337 11263,14405 11251,14405 11243,14405 11235,14405 11235,14413 11235,14421 11235,14433 11123,14498 11067,14474 10966,14474 Z M 10966,14474 L 10966,14474 Z M 12076,6850 C 12097,6858 12117,6866 12141,6874 12149,6902 12157,6934 12169,6966 12020,7078 12008,6942 12000,6874 12024,6866 12048,6858 12076,6850 Z M 12076,6850 L 12076,6850 Z M 12068,7130 C 12060,7206 12060,7206 12036,7251 11984,7263 11932,7275 11884,7287 11872,7186 11852,7146 11864,7074 11940,7070 11976,7054 12064,7098 12117,7050 12177,7022 12269,7066 12273,7050 12281,7038 12289,7026 12337,7026 12397,7010 12457,6986 12473,6922 12465,6926 12529,6942 12533,6978 12541,7018 12549,7058 12529,7054 12509,7050 12489,7050 12477,7202 12301,7086 12269,7078 12265,7110 12317,7170 12317,7259 12181,7303 12121,7186 12068,7130 Z M 12068,7130 L 12068,7130 Z M 12806,7178 C 12706,7086 12698,7050 12618,7018 12618,7002 12618,6986 12622,6970 12666,6962 12714,6958 12762,6954 12798,6990 12902,7038 12874,7150 12850,7158 12826,7166 12806,7178 Z M 12806,7178 L 12806,7178 Z M 12429,7768 C 12389,7687 12409,7623 12481,7599 12473,7579 12465,7559 12461,7539 12429,7539 12397,7539 12365,7539 12361,7527 12361,7519 12361,7511 12385,7495 12409,7479 12437,7467 12441,7435 12445,7403 12453,7375 12469,7371 12489,7367 12509,7367 12577,7214 12594,7194 12774,7263 12794,7287 12794,7287 12794,7351 12762,7383 12730,7415 12698,7447 12674,7619 12598,7707 12429,7768 Z M 12429,7768 L 12429,7768 Z M 13050,6858 C 13127,6797 13283,6777 13403,6761 13403,6793 13407,6825 13411,6858 13395,6878 13383,6902 13371,6926 13307,6990 13215,6978 13151,6974 13131,6950 13131,6950 13127,6886 13111,6886 13098,6886 13086,6886 13086,6954 13062,6978 13042,7050 13010,7054 12978,7058 12950,7066 12890,6986 12858,6946 12850,6898 12914,6882 12982,6870 13050,6858 Z M 13050,6858 L 13050,6858 Z M 13119,7347 C 13147,7311 13147,7311 13159,7271 13090,7243 13090,7243 12998,7239 12990,7194 12990,7194 13010,7134 13046,7134 13082,7134 13123,7138 13123,7126 13127,7118 13131,7110 13119,7106 13106,7102 13098,7098 13098,7082 13102,7066 13106,7050 13171,7030 13215,7034 13311,7038 13291,7239 13291,7239 13259,7387 13219,7387 13179,7387 13143,7387 13135,7371 13127,7359 13119,7347 Z M 13119,7347 L 13119,7347 Z M 12770,8152 C 12770,8024 12786,7928 12806,7816 12838,7816 12870,7816 12902,7816 13010,7960 12938,8104 12770,8152 Z M 12770,8152 L 12770,8152 Z M 13451,7299 C 13451,7186 13387,7118 13411,7046 13423,7038 13423,7038 13447,6870 13491,6773 13523,6632 13575,6580 13603,6588 13607,6596 13632,6668 13672,6692 13716,6721 13760,6749 13756,6801 13756,6854 13756,6906 13768,6910 13780,6914 13792,6922 13792,6962 13800,6966 13840,7038 13856,7038 13872,7042 13892,7046 13904,7038 13916,7034 13928,7030 13900,6982 13872,6934 13848,6890 13840,6870 13836,6850 13832,6830 13876,6830 13920,6830 13964,6834 14016,6898 14028,6974 14161,7022 14157,7054 14157,7090 14157,7126 14189,7126 14213,7078 14229,7058 14261,7058 14293,7062 14325,7066 14325,7074 14329,7086 14333,7098 14161,7271 14088,7126 13968,7146 13968,7230 14141,7142 14120,7363 14040,7455 13844,7627 13728,7599 13720,7579 13712,7559 13708,7543 13680,7531 13680,7531 13607,7543 13531,7467 13531,7467 13487,7387 13467,7407 13467,7407 13459,7491 13379,7419 13379,7375 13387,7315 13407,7307 13427,7303 13451,7299 Z M 13451,7299 L 13451,7299 Z M 13872,8369 C 13868,8357 13864,8345 13860,8333 13912,8269 14112,7996 14237,8020 14237,8200 14024,8321 13872,8369 Z M 13872,8369 L 13872,8369 Z M 12137,9303 C 11928,9222 11832,8782 11876,8649 11944,8649 12024,8629 12117,8713 12165,8834 12233,8974 12429,8950 12497,8822 12646,8557 12846,8705 12846,8886 12537,9162 12389,9262 12269,9295 12269,9295 12137,9303 Z M 12137,9303 L 12137,9303 Z M 12349,8794 C 12353,8765 12357,8737 12365,8709 12325,8713 12325,8713 12289,8701 12285,8657 12285,8613 12285,8569 12173,8589 12137,8577 12036,8553 12036,8485 12040,8421 12044,8357 12024,8393 12004,8433 11988,8473 11920,8565 11840,8565 11764,8541 11756,8529 11752,8517 11748,8509 11860,8313 11976,8116 12093,7920 12221,7832 12197,7764 12377,7864 12353,8044 12353,8044 12365,8064 12425,8016 12425,8016 12449,8012 12449,8092 12449,8176 12449,8260 12461,8260 12473,8260 12489,8260 12505,8164 12553,8084 12594,8016 12646,8248 12565,8589 12421,8810 12365,8810 12365,8810 12349,8794 Z M 12349,8794 L 12349,8794 Z M 11287,8313 C 11283,8293 11279,8273 11279,8252 11451,8184 11451,8184 11499,8184 11531,8248 11531,8248 11531,8301 11455,8301 11443,8321 11423,8393 11323,8425 11327,8337 11287,8313 Z M 11287,8313 L 11287,8313 Z M 11207,7050 C 11147,7070 11143,7150 11123,7218 11075,7202 11026,7190 10982,7178 11022,7090 11063,7006 11103,6922 11115,6922 11127,6922 11139,6922 11163,6954 11187,6990 11215,7026 11263,7002 11355,6765 11363,6704 11371,6704 11379,6704 11387,6704 11387,6692 11387,6684 11387,6676 11475,6652 11459,6628 11608,6648 11608,6632 11608,6620 11612,6608 11576,6568 11539,6528 11503,6492 11543,6452 11608,6404 11668,6384 11724,6508 11768,6636 11952,6544 11956,6528 11960,6516 11964,6504 11664,6532 11832,6404 11684,6344 11680,6292 11680,6240 11680,6187 11880,6143 11844,6095 11852,5911 11892,5899 11904,5883 11976,5899 11976,6087 11840,6159 11976,6388 12097,6508 12157,6777 12325,6890 12321,6910 12317,6934 12313,6958 12261,6974 12241,6954 12217,6946 12197,6894 12181,6846 12165,6797 12157,6781 12149,6765 12141,6749 11944,6797 11960,6785 11832,6700 11820,6700 11812,6700 11804,6704 11796,6721 11788,6737 11780,6757 11728,6753 11728,6753 11696,6733 11652,6777 11652,6777 11644,6817 11716,6809 11792,6805 11868,6801 11932,6842 11920,6902 11912,7006 11764,7054 11808,6990 11724,6982 11712,6990 11700,6998 11692,7010 11700,7038 11704,7046 11776,7082 11792,7198 11800,7243 11792,7367 11820,7391 11848,7419 11880,7447 11880,7479 11840,7511 11816,7531 11788,7551 11760,7571 11736,7591 11776,7591 11796,7595 11844,7559 11884,7543 11924,7531 11968,7519 12000,7515 12032,7511 12068,7507 12060,7487 12052,7467 12044,7447 12028,7451 12012,7455 11996,7459 11976,7443 11956,7431 11936,7419 11936,7395 11936,7371 11936,7347 12052,7291 12085,7303 12237,7347 12169,7667 11908,8032 11752,8357 11668,8357 11636,8325 11604,8309 11612,8265 11612,8265 11636,8232 11612,8224 11588,8216 11568,8208 11551,8164 11535,8124 11523,8084 11503,8076 11483,8072 11467,8068 11443,8020 11419,7972 11395,7924 11383,7924 11371,7928 11363,7932 11403,8032 11403,8032 11415,8100 11287,8168 11271,8200 11203,8112 11183,8068 11163,8028 11143,7988 11127,7992 11115,7996 11103,8000 11107,8056 11131,8076 11163,8160 11235,8301 11235,8301 11267,8333 11331,8529 11115,8589 11327,8834 11323,8858 11323,8882 11323,8910 10962,8970 11063,8786 11038,9254 11022,9258 11010,9266 10998,9274 10998,9299 10998,9323 11002,9351 11059,9355 11115,9359 11175,9367 11199,9479 11227,9495 11319,9619 11351,9635 11351,9635 11363,9667 11351,9679 11343,9695 11335,9711 11283,9715 11235,9719 11187,9723 11135,9840 11099,10016 11018,10132 11006,10132 10994,10132 10982,10136 10922,9591 10922,9591 10906,9575 10906,9090 10942,8661 10974,8212 11010,8080 11010,8080 11075,7631 11131,7439 11183,7243 11207,7050 Z M 11207,7050 L 11207,7050 Z M 10994,7387 C 10930,7339 10922,7315 10918,7279 10954,7295 10994,7311 11034,7331 11034,7339 11034,7347 11034,7359 11018,7367 11006,7375 10994,7387 Z M 10994,7387 L 10994,7387 Z M 10882,7539 C 10846,7455 10794,7391 10806,7335 10842,7343 10878,7355 10914,7367 10926,7403 10934,7463 10922,7539 10906,7539 10894,7539 10882,7539 Z M 10882,7539 L 10882,7539 Z M 10281,7792 C 10277,7772 10277,7756 10277,7739 10381,7615 10517,7443 10686,7419 10686,7599 10429,7731 10281,7792 Z M 10281,7792 L 10281,7792 Z M 10686,7888 C 10730,7832 10778,7776 10826,7719 10882,7651 10954,7571 11014,7695 10934,7868 10914,7924 10902,8140 10882,8140 10862,8140 10842,8140 10838,8116 10834,8092 10834,8072 10770,8084 10710,8096 10650,8108 10650,8012 10758,7960 10686,7888 Z M 10686,7888 L 10686,7888 Z M 10786,7711 C 10722,7752 10702,7804 10654,7852 10598,7916 10357,8168 10289,8148 10285,8092 10285,8036 10285,7980 10309,7988 10333,7996 10361,8004 10377,7904 10377,7904 10405,7840 10433,7840 10433,7864 10489,7872 10538,7808 10538,7808 10546,7760 10558,7756 10574,7752 10590,7748 10602,7719 10618,7695 10634,7671 10678,7667 10722,7663 10766,7663 10770,7679 10778,7695 10786,7711 Z M 10786,7711 L 10786,7711 Z M 9992,8252 C 9956,8244 9956,8244 9900,8208 9904,8164 9912,8124 9920,8084 9932,8080 9948,8080 9964,8080 10008,8124 10021,8164 9992,8252 Z M 9992,8252 L 9992,8252 Z M 10353,8309 C 10353,8289 10353,8269 10357,8252 10377,8248 10401,8248 10425,8248 10453,8285 10481,8333 10505,8421 10461,8437 10461,8437 10409,8429 10389,8357 10389,8357 10353,8309 Z M 10353,8309 L 10353,8309 Z M 10233,8513 C 10209,8545 10181,8673 10157,8693 10061,8641 10041,8613 10008,8573 10037,8529 10069,8485 10101,8445 10141,8449 10181,8453 10221,8461 10221,8425 10225,8389 10229,8353 10293,8313 10293,8313 10341,8309 10341,8381 10385,8557 10261,8581 10249,8557 10241,8533 10233,8513 Z M 10233,8513 L 10233,8513 Z M 10353,9042 C 10329,8962 10305,8886 10285,8810 10385,8621 10614,8401 10822,8369 10786,8461 10838,8513 10802,8625 10710,8653 10742,8637 10714,8713 10690,8717 10666,8721 10642,8725 10602,8794 10574,8794 10505,8810 10465,8850 10385,9014 10353,9042 Z M 10353,9042 L 10353,9042 Z M 10041,9222 C 10025,9178 10012,9134 10000,9094 9976,9090 9952,9090 9928,9090 9920,9066 9916,9046 9912,9026 9904,9022 9896,9018 9888,9014 9904,8958 9920,8902 9940,8850 9960,8846 9980,8846 10000,8846 10004,8854 10012,8862 10021,8874 9996,8918 9972,8914 9988,8994 10069,8962 10145,8894 10225,8850 10257,8910 10257,8910 10257,8942 10237,8950 10221,8958 10205,8970 10205,8994 10205,9022 10205,9050 10173,9054 10145,9058 10117,9066 10113,9106 10109,9146 10105,9190 10081,9198 10061,9210 10041,9222 Z M 10041,9222 L 10041,9222 Z M 10165,9695 C 10161,9639 10161,9639 10141,9603 10016,9559 9920,9475 9940,9367 10113,9327 10405,9194 10525,9058 10610,9034 10694,9010 10778,8986 10778,9246 10674,9303 10517,9471 10505,9543 10433,9571 10389,9571 10361,9523 10337,9479 10313,9435 10101,9467 10281,9667 10165,9695 Z M 10165,9695 L 10165,9695 Z M 10313,10136 C 10249,10016 10249,10016 10241,9964 10153,9924 10153,9924 10141,9900 10305,9791 10489,9703 10670,9587 10690,9587 10714,9587 10738,9587 10734,9627 10738,9816 10694,9860 10682,9852 10674,9844 10666,9836 10666,9775 10666,9719 10666,9663 10642,9663 10642,9663 10618,9683 10626,9759 10634,9836 10642,9912 10646,9952 10650,9992 10654,10032 10598,10044 10554,10052 10521,10044 10509,9952 10509,9952 10477,9860 10469,9864 10465,9868 10461,9872 10461,9916 10453,10004 10501,10052 10497,10068 10493,10088 10493,10108 10473,10112 10453,10120 10433,10128 10421,10116 10409,10104 10401,10096 10397,10048 10393,10000 10393,9952 10377,9956 10365,9960 10353,9964 10353,10016 10353,10072 10353,10128 10337,10128 10325,10132 10313,10136 Z M 10313,10136 L 10313,10136 Z M 10906,10176 C 10850,10192 10870,10204 10862,10256 10806,10429 10634,10393 10481,10421 10417,10337 10421,10284 10477,10228 10586,10192 10686,10056 10822,10024 10830,10072 10870,10100 10906,10176 Z M 10906,10176 L 10906,10176 Z M 10722,10874 C 10658,10789 10614,10785 10558,10761 10558,10585 10742,10497 10914,10497 10918,10509 10926,10525 10934,10541 10910,10553 10890,10565 10870,10577 10878,10641 10886,10709 10898,10777 10874,10805 10874,10805 10722,10874 Z M 10722,10874 L 10722,10874 Z M 12457,13178 C 12529,13030 12930,12805 13038,12725 13078,12717 13195,12649 13259,12669 13074,12962 12762,13074 12457,13178 Z M 12457,13178 L 12457,13178 Z M 12698,9783 C 12714,9763 12730,9743 12746,9723 12818,9687 12858,9691 12966,9695 12946,9783 12862,9723 12834,9836 12862,9840 12890,9844 12922,9848 12918,9876 12914,9908 12914,9940 12706,10008 12698,9936 12698,9783 Z M 12698,9783 L 12698,9783 Z M 12016,12777 C 12032,12809 12048,12841 12068,12877 12076,12902 12093,12926 12145,12970 12157,12966 12173,12962 12189,12958 12189,12942 12189,12926 12189,12910 12157,12906 12117,12889 12105,12869 12085,12829 12064,12789 12044,12749 12040,12721 12040,12697 12040,12673 12093,12621 12089,12637 12169,12617 12197,12637 12197,12637 12217,12681 12229,12705 12245,12729 12261,12757 12221,12837 12221,12837 12225,12865 12261,12861 12337,12801 12445,12761 12413,12693 12329,12717 12297,12717 12281,12693 12265,12669 12249,12649 12241,12625 12233,12601 12225,12581 12285,12533 12285,12533 12317,12529 12341,12577 12365,12625 12389,12677 12401,12677 12413,12677 12429,12677 12429,12553 12405,12549 12365,12477 12361,12469 12357,12461 12353,12457 12157,12457 12117,12665 11988,12441 11740,12441 11820,12605 11684,12397 11604,12244 11523,12092 11443,11940 11415,11876 11387,11815 11363,11755 11287,11515 11191,11294 11155,11078 11143,11034 11131,10994 11123,10954 11107,10878 11095,10805 11083,10733 11059,10553 11059,10553 11042,10513 10994,10385 10998,10345 10994,10252 11155,10236 11195,10176 11367,10308 11435,10325 11491,10325 11576,10397 11547,10521 11455,10481 11351,10477 11347,10501 11347,10525 11347,10553 11391,10553 11435,10557 11483,10561 11475,10609 11471,10661 11467,10713 11403,10721 11343,10729 11283,10737 11291,10757 11299,10777 11311,10797 11451,10785 11580,10769 11604,10986 11543,11018 11487,11050 11431,11082 11435,11110 11435,11110 11459,11122 11576,11050 11608,11026 11756,11086 11756,11110 11756,11134 11756,11158 11652,11178 11616,11170 11547,11166 11539,11254 11539,11254 11503,11346 11612,11338 11672,11286 11812,11342 11924,11306 11924,11306 12000,11266 11996,11238 11992,11214 11992,11190 11976,11186 11964,11182 11952,11178 11944,11202 11940,11226 11936,11254 11848,11258 11824,11270 11748,11254 11752,11238 11760,11222 11768,11206 11784,11198 11784,11198 11804,11038 11776,11026 11752,11014 11728,11006 11708,10994 11688,10982 11668,10974 11660,10850 11660,10850 11648,10846 11604,10809 11563,10777 11523,10745 11523,10701 11523,10701 11543,10669 11624,10681 11704,10693 11788,10705 11780,10681 11772,10657 11768,10633 11708,10621 11652,10609 11596,10601 11588,10585 11580,10573 11576,10561 11616,10481 11640,10493 11724,10457 11724,10437 11724,10417 11724,10401 11688,10397 11688,10397 11624,10425 11616,10409 11612,10397 11608,10385 11640,10228 11888,10316 12028,10349 12133,10337 12241,10325 12349,10312 12429,10525 12525,10581 12433,10838 12473,10838 12541,10765 12577,10733 12694,10637 12786,10489 12806,10345 12906,10208 12778,10000 12938,10032 12954,10874 12954,10874 12942,11427 12902,11775 12898,11964 12986,12328 13034,12393 13034,12393 13062,12473 12974,12649 12521,12926 12369,13026 12313,13070 12257,13118 12205,13166 12085,13126 11864,12729 11812,12617 11936,12525 11928,12461 12032,12605 11992,12669 11992,12669 11972,12733 11984,12745 12000,12761 12016,12777 Z M 12016,12777 L 12016,12777 Z M 15075,10304 C 15336,10405 15600,10505 15865,10609 15949,10673 15949,10713 16037,10817 16041,10838 16045,10858 16053,10878 15945,10902 15769,10713 15701,10669 15616,10641 14694,10337 14589,10216 14561,10208 14537,10200 14513,10192 14513,10180 14513,10172 14513,10164 14313,10064 14205,9920 14116,9779 14056,9779 14048,9743 14028,9715 13684,9715 13395,9856 13102,9980 13090,9968 13078,9960 13070,9952 13195,9763 13299,9723 13559,9707 13587,9635 13804,9603 13896,9579 14128,9603 14369,9936 14605,10112 14874,10236 14874,10236 15075,10304 Z M 15075,10304 L 15075,10304 Z M 12257,13311 C 12237,13391 12221,13476 12205,13560 12485,13924 12521,14033 12590,14053 12602,14077 12614,14101 12630,14125 12646,14177 12646,14177 12638,14205 12449,14125 12425,14025 12405,13888 12157,13812 12133,13772 12081,13560 12109,13432 12121,13331 12257,13311 Z M 12257,13311 L 12257,13311 Z M 13888,14542 C 13856,14514 13824,14490 13792,14466 13792,14401 14317,14325 14417,14313 14413,14321 14409,14329 14409,14341 14233,14405 14060,14474 13888,14542 Z M 13888,14542 L 13888,14542 Z M 13367,14983 C 13343,14898 13319,14814 13299,14730 13279,14798 13295,14854 13311,14926 13315,15007 13367,15179 13327,15283 13287,15279 13247,15275 13207,15275 13199,15247 13195,15219 13191,15195 13183,15135 13175,15075 13167,15015 13163,14999 13159,14983 13159,14967 13151,14854 13147,14742 13143,14630 13106,14666 13098,14830 13086,14926 13030,15023 12974,15147 12882,15251 12866,15179 12866,15179 12870,15115 12870,15075 12870,15035 12870,14995 12874,14979 12878,14967 12886,14954 12886,14898 12886,14846 12886,14794 12890,14770 12894,14746 12898,14726 12898,14614 12942,14490 12950,14401 12918,14401 12890,14401 12862,14405 12858,14429 12858,14458 12858,14486 12850,14514 12842,14542 12838,14574 12826,14570 12814,14570 12802,14570 12782,14490 12794,14454 12802,14397 12766,14341 12766,14341 12686,14141 12646,14057 12646,14057 12585,13985 12477,13812 12369,13644 12265,13476 12265,13440 12345,13371 12365,13339 12433,13343 12501,13347 12573,13355 12581,13375 12590,13395 12598,13420 12598,13424 12598,13432 12598,13440 12622,13440 12650,13440 12678,13440 12678,13452 12678,13468 12678,13484 12662,13504 12662,13504 12529,13544 12525,13580 12525,13616 12525,13652 12638,13664 12638,13664 12694,13688 12694,13700 12694,13700 12634,13736 12642,13772 12634,13832 12718,13852 12758,13840 12774,13816 12842,13836 12846,13848 12850,13864 12858,13880 12834,13892 12810,13904 12790,13920 12786,13941 12786,13961 12786,13985 12830,13997 12874,14009 12918,14025 12910,14061 12902,14097 12898,14133 12918,14133 12942,14133 12966,14133 12966,14157 12970,14181 12974,14209 13014,14161 13034,14113 13030,14077 13014,14073 12998,14069 12986,14065 12970,14049 12954,14037 12938,14025 12926,13961 12918,13965 12882,13937 12882,13924 12882,13912 12886,13904 12898,13896 12910,13888 12926,13880 12922,13856 12918,13836 12914,13816 12830,13776 12802,13788 12758,13792 12742,13780 12742,13780 12746,13756 12762,13748 12778,13740 12798,13732 12802,13728 12810,13724 12818,13724 12822,13700 12826,13680 12830,13660 12814,13660 12798,13660 12786,13664 12726,13640 12722,13624 12602,13584 12626,13560 12626,13560 12718,13532 12718,13512 12718,13492 12718,13472 12714,13440 12714,13440 12666,13383 12646,13347 12646,13347 12646,13303 12610,13299 12577,13295 12545,13291 12545,13202 12910,13102 13026,13102 13046,13243 13082,13852 13323,13933 13559,14365 13559,14365 13611,14486 13636,14726 13732,14938 13720,15231 13664,15203 13551,14766 13539,14722 13515,14654 13491,14586 13467,14522 13455,14518 13447,14514 13439,14514 13459,14586 13479,14658 13499,14734 13555,14954 13603,15163 13636,15423 13511,15548 13375,14999 13367,14983 Z M 13367,14983 L 13367,14983 Z M 14120,14133 C 14261,14073 14613,13977 14702,13824 14706,13736 14706,13736 14694,13736 14658,13808 14658,13808 14609,13868 14413,13892 14273,13997 14100,14073 13788,14181 13720,14221 13648,14245 13363,14085 13652,13985 13672,13812 13547,13764 13467,13812 13387,13796 13383,13784 13383,13772 13383,13760 13483,13688 13587,13660 13700,13592 13724,13512 13752,13432 13780,13351 13780,13222 13724,13150 13688,13078 13684,12962 13684,12962 13700,12922 13708,12902 13720,12885 13732,12869 13756,12833 13780,12797 13808,12761 13832,12725 13856,12693 13880,12661 13916,12645 13916,12645 13980,12569 13988,12553 13996,12541 14008,12529 14048,12485 14088,12445 14128,12405 14056,12405 14056,12421 14012,12449 13780,12585 13704,12873 13499,12994 13495,12982 13491,12970 13491,12962 13511,12918 13531,12873 13551,12829 13579,12785 13579,12785 13583,12749 13571,12745 13559,12741 13551,12737 13495,12793 13495,12793 13471,12837 13411,12910 13411,12910 13359,13002 13335,12998 13311,12998 13287,12998 13287,12906 13339,12902 13379,12837 13423,12725 13423,12725 13423,12681 13403,12685 13387,12689 13371,12697 13395,12541 13628,12425 13607,12312 13571,12336 13527,12393 13435,12457 13427,12445 13419,12433 13415,12421 13343,12437 13279,12525 13235,12529 13255,12441 13255,12441 13287,12376 13339,12292 13395,12240 13411,12196 13359,12196 13243,12324 13231,12356 13187,12393 13127,12425 13094,12429 13090,12413 13086,12401 13086,12389 13086,12376 13086,12364 13086,12356 13111,12328 13139,12304 13167,12280 13199,12240 13199,12240 13239,12216 13263,12164 13287,12116 13311,12068 13431,11952 13431,11908 13591,11888 13607,11803 13607,11803 13632,11755 14000,11631 14365,11531 14762,11435 14842,11415 14926,11395 15011,11375 15364,11375 15725,10994 16097,11242 16121,11278 16149,11318 16177,11359 16242,11367 16314,11351 16406,11395 16410,11423 16418,11451 16426,11479 16410,11675 16322,11699 16165,11787 16085,11799 16085,11799 15965,11795 15945,11791 15929,11787 15913,11787 15917,11880 15921,11972 15925,12068 15917,12072 15909,12080 15905,12088 15893,12080 15881,12072 15873,12068 15685,12008 15725,11972 15685,11815 15652,11811 15652,11811 15604,11835 15408,11851 15248,11868 15083,11924 15079,11932 15075,11940 15071,11948 15143,11944 15408,11835 15432,11996 15376,12008 15320,12020 15268,12032 15260,12044 15256,12060 15252,12076 15300,12076 15396,12084 15452,12048 15484,12056 15504,12052 15532,12096 15520,12104 15508,12112 15496,12124 15043,12224 14561,12561 14738,13090 14834,13138 14934,13210 15055,13315 15055,13327 15055,13343 15055,13359 14958,13359 14862,13359 14770,13363 14762,13371 14758,13379 14754,13391 14878,13440 15027,13424 15180,13375 15196,13379 15212,13387 15228,13395 15224,13424 15220,13452 15216,13484 15168,13496 15168,13496 15031,13488 15031,13504 15031,13520 15035,13536 15047,13544 15063,13552 15079,13560 15079,13572 15079,13584 15079,13600 14999,13600 14922,13600 14846,13600 14842,13628 14842,13656 14842,13684 14878,13716 14914,13748 14950,13784 14870,13892 14854,14001 14770,14113 14577,14137 14385,14137 14245,14237 14100,14285 14100,14285 13752,14353 13756,14337 13760,14321 13764,14309 13880,14249 14000,14189 14120,14133 Z M 14120,14133 L 14120,14133 Z M 11387,14381 C 11303,14073 11159,14241 10974,14209 10990,14173 11006,14141 11022,14109 11159,14081 11539,14073 11539,14333 11487,14349 11435,14365 11387,14381 Z M 11387,14381 L 11387,14381 Z M 11716,14762 C 11800,14690 11836,14678 11844,14654 11948,14602 12056,14554 12165,14506 12173,14502 12181,14502 12193,14502 12193,14470 12193,14442 12197,14413 12161,14413 12125,14417 12089,14421 12004,14446 11924,14470 11844,14498 11724,14570 11547,14662 11467,14778 11451,14778 11435,14778 11423,14778 11423,14766 11423,14754 11423,14742 11431,14698 11419,14606 11403,14586 11391,14558 11383,14530 11375,14502 11511,14470 11648,14438 11784,14405 12125,14285 12265,14225 12658,14397 12702,14574 12429,14826 12249,14806 12169,14866 12076,14914 12004,14878 11812,14902 11816,15027 11716,14866 11660,14846 11660,14846 11640,14826 11680,14774 11680,14774 11716,14762 Z M 11716,14762 L 11716,14762 Z M 12076,15275 C 12056,15259 12036,15247 12016,15235 12225,15115 12449,14971 12678,14878 12529,15059 12305,15239 12076,15275 Z M 12076,15275 L 12076,15275 Z M 14722,15684 C 14553,15660 14261,15331 14197,15247 14309,15239 14625,15520 14782,15632 14782,15644 14782,15660 14782,15676 14762,15676 14742,15680 14722,15684 Z M 14722,15684 L 14722,15684 Z M 14373,15696 C 14181,15656 14072,15423 13984,15299 14080,15299 14313,15560 14421,15660 14417,15668 14413,15676 14409,15688 14397,15688 14385,15692 14373,15696 Z M 14373,15696 L 14373,15696 Z M 15572,13712 C 15440,13676 15440,13676 15328,13628 15180,13620 15180,13620 15147,13608 15143,13596 15139,13588 15139,13580 15380,13516 15392,13548 15668,13636 15668,13648 15672,13664 15676,13680 15640,13688 15604,13700 15572,13712 Z M 15572,13712 L 15572,13712 Z M 15993,13740 C 16017,13692 16045,13648 16073,13604 16073,13596 16077,13588 16081,13584 16097,13580 16113,13580 16133,13580 16165,13732 16198,13856 15957,13920 15953,13876 15949,13836 15945,13796 15961,13776 15977,13756 15993,13740 Z M 15993,13740 L 15993,13740 Z M 15452,14021 C 15408,13977 15396,13840 15396,13812 15168,13756 15168,13756 15107,13728 15107,13716 15111,13708 15115,13700 15216,13688 15448,13676 15520,13820 15532,13820 15544,13820 15556,13820 15576,13780 15817,13696 15817,13860 15681,13864 15596,13868 15492,13912 15484,13949 15480,13985 15476,14021 15468,14021 15460,14021 15452,14021 Z M 15452,14021 L 15452,14021 Z M 15135,14185 C 15168,14121 15296,14021 15372,14005 15372,14145 15240,14169 15135,14185 Z M 15135,14185 L 15135,14185 Z M 14850,14205 C 14830,14197 14810,14193 14794,14189 14798,14161 14830,14141 14874,14081 14906,13896 14954,13784 15176,13864 15220,13937 15220,13937 15228,13981 15119,14109 14983,14133 14850,14205 Z M 14850,14205 L 14850,14205 Z M 16346,14165 C 16322,14245 16193,14321 16129,14333 16153,14253 16258,14173 16346,14165 Z M 16346,14165 L 16346,14165 Z M 18550,13520 C 18570,13460 18594,13399 18618,13343 18662,13259 18706,13178 18750,13098 18779,13010 18787,13018 18871,12978 18895,12990 18923,13002 18951,13018 18967,13134 19043,13194 19063,13323 18947,13283 18947,13283 18903,13255 18883,13222 18831,13186 18819,13190 18819,13279 18811,13347 18847,13460 18815,13476 18682,13484 18550,13520 Z M 18550,13520 L 18550,13520 Z M 17961,13660 C 17973,13684 18025,13688 18061,13764 17973,13768 17885,13772 17797,13780 17797,13668 17813,13652 17853,13572 17861,13568 17869,13568 17881,13568 17933,13644 17933,13644 17961,13660 Z M 17961,13660 L 17961,13660 Z M 18290,13692 C 18314,13664 18338,13636 18362,13612 18398,13592 18438,13576 18478,13560 18446,13692 18474,13852 18494,14013 18486,14017 18478,14021 18470,14025 18410,13997 18402,13820 18398,13792 18318,13784 18274,13840 18241,13760 18258,13736 18274,13712 18290,13692 Z M 18290,13692 L 18290,13692 Z M 19364,12701 C 19312,12693 19259,12685 19211,12677 19087,12605 19087,12605 19019,12589 18971,12581 18927,12577 18883,12573 18851,12521 18851,12521 18799,12360 18799,12260 18819,12208 18911,12164 18975,12200 19027,12212 19091,12312 19099,12312 19111,12312 19123,12316 19167,12433 19492,12489 19444,12717 19416,12709 19388,12705 19364,12701 Z M 19364,12701 L 19364,12701 Z M 17841,12777 C 17825,12745 17809,12713 17797,12681 17845,12637 17897,12597 17949,12557 17949,12449 17933,12429 17905,12368 17953,12352 18193,12256 18245,12308 18245,12437 18229,12501 18189,12645 18097,12693 17945,12733 17841,12777 Z M 17841,12777 L 17841,12777 Z M 17977,13632 C 17977,13536 17997,13468 18089,13448 18161,13367 18193,13351 18330,13190 18402,13154 18450,13110 18510,13050 18598,12910 18807,12653 18971,12641 19019,12669 19019,12669 19199,12717 19203,12729 19211,12745 19219,12761 19207,12785 19199,12813 19191,12841 19183,12869 19179,12902 19175,12934 19179,12938 19187,12942 19195,12950 19211,12918 19231,12885 19251,12857 19284,12793 19336,12781 19408,12757 19424,12914 19292,13186 19099,13122 19071,13078 19043,13038 19019,12998 18987,12958 18959,12918 18931,12877 18702,12877 18626,13174 18482,13319 18374,13371 18306,13383 18274,13500 18306,13500 18342,13504 18378,13508 18366,13528 18354,13548 18342,13572 18286,13604 18286,13604 18258,13640 18161,13672 18049,13672 17977,13632 Z M 17977,13632 L 17977,13632 Z M 17761,13852 C 17897,13836 18033,13820 18173,13808 18177,13824 18181,13840 18185,13856 18141,13880 18141,13880 17969,13916 17969,13973 17969,13973 17957,13981 17825,13941 17793,13933 17761,13852 Z M 17761,13852 L 17761,13852 Z M 14489,6003 C 14461,5963 14437,5923 14413,5887 14401,5883 14389,5883 14381,5883 14377,5835 14373,5787 14369,5739 14417,5723 14417,5723 14477,5735 14501,5791 14501,5791 14513,5791 14521,5767 14529,5743 14541,5719 14666,5719 14738,5847 14890,5911 14914,5911 15055,5891 15083,5967 15079,5975 15075,5983 15071,5991 14995,5995 14918,5999 14842,6003 14842,6011 14842,6023 14842,6035 14958,6055 15031,5999 15055,6163 14838,6163 14637,6103 14489,6003 Z M 14489,6003 L 14489,6003 Z M 14874,6496 C 14874,6384 14890,6332 14922,6244 14938,6244 14954,6244 14970,6244 14987,6296 14970,6384 14954,6456 14926,6468 14898,6480 14874,6496 Z M 14874,6496 L 14874,6496 Z M 15164,6797 C 15131,6785 15099,6773 15071,6761 15107,6644 15801,6360 15913,6352 15917,6364 15921,6380 15925,6396 15801,6448 15676,6500 15556,6556 15468,6692 15296,6745 15164,6797 Z M 15164,6797 L 15164,6797 Z M 14922,7146 C 14850,7186 14730,7226 14710,7247 14617,7271 14429,7339 14349,7319 14521,7170 14726,7126 14954,7054 14946,7106 14946,7106 14922,7146 Z M 14922,7146 L 14922,7146 Z M 14954,9210 C 14979,9102 15007,8994 15035,8890 15055,8798 15051,8798 15151,8782 15143,8922 15135,9062 15127,9202 15067,9202 15011,9206 14954,9210 Z M 14954,9210 L 14954,9210 Z M 19524,8333 C 19492,8309 19464,8289 19436,8269 19432,8252 19432,8236 19432,8224 19520,8168 19600,8148 19716,8196 19716,8208 19720,8224 19724,8240 19608,8252 19584,8244 19524,8333 Z M 19524,8333 L 19524,8333 Z M 19572,8489 C 19552,8401 19532,8381 19524,8349 19564,8349 19704,8297 19772,8269 19776,8277 19780,8289 19784,8301 19760,8333 19660,8393 19572,8489 Z M 19572,8489 L 19572,8489 Z M 18382,6608 C 18406,6544 18394,6548 18462,6536 18458,6608 18442,6624 18438,6668 18398,6648 18390,6624 18382,6608 Z M 18382,6608 L 18382,6608 Z M 19524,7226 C 19500,7275 19500,7275 19472,7299 19392,7335 19312,7371 19235,7407 19219,7247 19372,7170 19504,7154 19508,7178 19516,7202 19524,7226 Z M 19524,7226 L 19524,7226 Z M 18538,7447 C 18558,7491 18578,7535 18602,7579 18602,7663 18538,7719 18458,7719 18374,7591 18314,7487 18298,7379 18426,7367 18398,7351 18538,7447 Z M 18538,7447 L 18538,7447 Z M 18859,8393 C 18867,8341 18867,8341 18895,8313 18899,8184 18839,8048 18803,7980 18767,7920 18730,7860 18698,7800 18634,7711 18642,7675 18762,7663 18867,7788 19239,8273 18863,8409 18859,8481 18859,8557 18859,8633 18855,8649 18851,8665 18851,8681 18827,8661 18807,8641 18787,8621 18678,8673 18943,8906 18943,9034 18754,9034 18566,8637 18702,8549 18742,8521 18758,8461 18771,8433 18799,8417 18827,8405 18859,8393 Z M 18859,8393 L 18859,8393 Z M 17228,8501 C 17260,8681 17384,8882 17508,9070 17516,9102 17528,9134 17540,9166 17464,9166 17432,9098 17396,9090 17396,9074 17396,9062 17396,9050 17264,8810 17107,8589 17059,8365 16747,8337 17071,8084 17171,8036 17187,8032 17203,8032 17219,8032 17203,8180 17203,8317 17228,8501 Z M 17228,8501 L 17228,8501 Z M 19624,4500 C 19624,4264 19556,4240 19396,4176 19384,4144 19372,4111 19360,4083 19372,4083 19384,4083 19400,4083 19404,4091 19412,4099 19420,4111 19628,4208 19668,4204 19684,4480 19664,4484 19644,4492 19624,4500 Z M 19624,4500 L 19624,4500 Z M 19720,5145 C 19736,5045 19760,5033 19805,4973 19817,4949 19833,4925 19849,4901 19861,4901 19877,4901 19893,4901 19973,5065 19985,5230 19740,5198 19732,5178 19724,5161 19720,5145 Z M 19720,5145 L 19720,5145 Z M 19993,6324 C 19977,6260 19961,6200 19949,6139 19973,6143 20037,6139 20045,6224 20061,6224 20077,6224 20097,6224 20097,6288 20041,6308 19993,6324 Z M 19993,6324 L 19993,6324 Z M 19464,7387 C 19484,7371 19484,7371 19500,7311 19532,7311 19564,7255 19580,7230 19616,7082 19925,7182 19652,7431 19524,7471 19484,7595 19360,7619 19360,7507 19408,7471 19464,7387 Z M 19464,7387 L 19464,7387 Z M 17408,5955 C 17392,5951 17380,5947 17368,5943 17368,5831 17388,5739 17412,5658 17428,5658 17444,5658 17460,5658 17532,5883 17532,5883 17536,5927 17492,5935 17448,5943 17408,5955 Z M 17408,5955 L 17408,5955 Z M 14589,4841 C 14565,4865 14541,4889 14517,4917 14501,4917 14485,4917 14473,4917 14493,4861 14517,4809 14541,4757 14557,4753 14573,4749 14589,4745 14589,4777 14589,4809 14589,4841 Z M 14589,4841 L 14589,4841 Z M 18089,6918 C 18101,6906 18113,6894 18125,6886 18109,6842 18109,6842 18089,6825 17945,6428 17793,6147 17873,5783 17937,5670 18001,5558 18065,5446 18302,5129 18302,5129 18318,5085 18326,5085 18334,5085 18342,5085 18366,4961 18566,4893 18490,4777 18398,4753 18254,4757 18217,4721 18326,4612 18446,4584 18610,4661 18630,4693 18654,4725 18678,4761 18678,4865 18634,4953 18590,5053 18286,5194 18097,5582 17965,5883 17965,6175 18065,6384 18193,6672 18205,6725 18217,6781 18229,6838 18229,6854 18233,6870 18237,6886 18229,6990 18213,7018 18153,7098 17945,7239 17736,7383 17532,7527 17420,7687 17332,7908 17135,7940 17143,7671 17444,7347 17680,7247 17732,7138 17969,7014 18089,6918 Z M 18089,6918 L 18089,6918 Z M 18262,6817 C 18258,6761 18254,6704 18249,6648 18065,6256 17997,6039 18121,5662 18193,5546 18290,5426 18318,5366 18414,5258 18522,5174 18598,5081 18686,4993 18771,4837 18698,4741 18686,4701 18630,4612 18610,4600 18590,4572 18574,4544 18558,4520 18694,4316 18895,4564 18915,4761 18879,4893 18827,4977 18730,5101 18686,5145 18654,5161 18634,5226 18658,5222 18686,5190 18730,5178 18730,5169 18734,5161 18738,5153 18791,5113 18847,5073 18903,5033 19003,4973 19003,4973 19059,4921 19183,4873 19368,4821 19468,4721 19568,4701 19712,4516 19772,4432 19776,4324 19780,4216 19784,4111 19985,4160 19953,4260 19961,4488 19893,4657 19544,4789 19400,4933 19424,4933 19452,4933 19480,4933 19488,4933 19496,4933 19504,4933 19504,4941 19504,4949 19504,4961 19496,4973 19488,4985 19484,4997 19560,4981 19636,4965 19712,4953 19688,5029 19680,5061 19672,5161 19668,5186 19664,5214 19660,5242 19444,5398 19356,5446 19292,5502 19251,5522 19211,5542 19175,5562 19171,5570 19171,5582 19171,5594 19223,5566 19275,5538 19332,5514 19544,5394 20001,5093 20233,5326 20277,5486 20197,5719 20009,5763 20009,5666 20053,5622 20053,5546 19869,5238 19416,5626 19207,5678 19019,5678 18875,5695 18714,5727 18630,5686 18634,5602 18642,5558 18722,5534 18722,5534 18803,5486 18803,5474 18807,5462 18811,5454 18526,5454 18338,5602 18193,5827 18181,6027 18193,6444 18358,6608 18350,6660 18302,6749 18302,6830 18286,6825 18274,6821 18262,6817 Z M 18262,6817 L 18262,6817 Z M 14048,8814 C 14116,8757 14116,8757 14181,8673 14265,8601 14265,8601 14273,8573 14293,8545 14317,8517 14341,8493 14385,8421 14433,8349 14481,8281 14625,8148 14786,7956 14946,7824 15027,7719 15027,7719 15051,7659 15007,7659 14557,8088 14517,8172 14489,8188 14481,8224 14453,8240 14433,8285 14357,8425 14301,8441 14301,8240 14465,8072 14573,7920 14601,7900 14601,7900 14645,7824 14637,7812 14629,7800 14621,7792 14569,7804 14569,7804 14553,7828 14153,7924 14153,7924 14072,7928 14100,7804 14149,7828 14269,7780 14389,7727 14389,7727 14393,7711 14345,7707 14261,7723 14209,7748 14141,7768 13928,7848 13928,7932 13868,7976 13812,8028 13740,8028 13744,8000 13748,7972 13756,7948 13748,7944 13740,7940 13732,7936 13611,8068 13491,8216 13307,8252 13335,8136 13463,8088 13499,7972 13483,7972 13467,7972 13451,7972 13471,7876 13499,7780 13503,7707 13467,7583 13467,7583 13467,7531 13599,7595 13571,7784 13539,7932 13599,7920 13736,7792 13748,7739 13812,7699 13916,7647 13960,7583 14008,7587 14060,7595 14112,7603 14209,7495 14217,7503 14373,7451 14377,7455 14381,7459 14389,7467 14501,7431 14645,7327 14762,7271 14826,7263 14902,7206 14970,7166 14995,7154 15023,7146 15051,7138 15083,7042 15360,6813 15492,6749 15580,6737 16145,6640 16109,6444 16001,6480 16001,6480 15945,6484 15941,6472 15937,6460 15937,6452 16025,6352 16157,6344 16185,6204 16065,6123 15608,6220 15532,6224 15492,6248 15436,6292 15392,6304 15212,6159 15240,6300 15055,6368 15063,6300 15071,6232 15083,6167 15240,6039 15664,6099 15889,6099 15973,6087 16061,6075 16149,6067 16177,5999 16177,5999 16193,5991 16226,6007 16226,6059 16238,6115 16310,6103 16382,6091 16458,6083 16410,5558 16410,5558 16386,5462 16370,5458 16358,5454 16346,5450 16338,5554 16374,5939 16366,5967 16342,5963 16318,5959 16298,5955 16278,5911 16262,5867 16246,5827 16246,5759 16226,5711 16214,5695 16181,5610 16165,5614 16137,5602 16117,5586 16097,5574 16077,5562 16053,5510 15917,5250 15897,5250 15821,5438 15833,5422 16037,5566 16073,5634 16097,5646 16117,5775 16077,5775 16037,5775 15997,5775 15997,5763 15997,5763 15885,5743 15845,5747 15805,5751 15765,5755 15652,5759 15544,5767 15436,5775 15103,5779 15007,5787 14950,5490 14966,5330 15007,5306 15111,5214 15131,5194 15131,5194 15147,5129 15123,5113 15103,5097 15083,5085 15059,5061 15059,5061 15055,5009 15063,4997 15075,4989 15087,4981 15348,4913 15905,4665 16165,4825 16165,4853 16169,4881 16173,4913 16065,4941 15889,4977 15981,5141 16045,5109 16049,5065 16065,5017 16085,5013 16105,5009 16125,5009 16202,5137 16250,5258 16458,5174 16462,5157 16470,5145 16478,5133 16430,5129 16386,5125 16342,5121 16338,5069 16338,5017 16338,4969 16466,4841 16506,5005 16514,5125 16654,5097 16755,5077 16875,4993 16867,4981 16859,4969 16855,4961 16670,4945 16546,4937 16434,4841 16438,4829 16442,4817 16446,4809 16522,4809 16610,4861 16727,4861 16690,4797 16678,4809 16678,4781 16799,4721 17103,4829 17248,4925 17344,4925 17384,4901 17520,4925 17548,4985 17572,5194 17456,5242 17348,5133 17464,5085 17452,4977 17428,4965 17428,4965 17324,4985 17320,5049 17320,5109 17284,5186 17223,5226 17223,5226 17211,5258 17252,5258 17296,5258 17340,5262 17320,5418 17179,5438 17055,5454 16979,5578 16731,5771 16747,5883 16803,5843 16815,5791 16915,5807 16895,5987 16727,6063 16686,6224 17003,6380 16863,6902 16855,7243 16863,7303 16867,7391 16855,7491 16747,7756 16702,7908 16682,7928 16614,7860 16622,7828 16614,7780 16530,7523 16550,7571 16654,7319 16719,7190 16706,7066 16694,6946 16694,6870 16678,6656 16638,6648 16638,6765 16590,6850 16598,7018 16626,7018 16630,7018 16654,7066 16646,7146 16642,7226 16638,7311 16626,7307 16618,7303 16610,7303 16606,7283 16602,7263 16598,7247 16562,7247 16562,7247 16530,7267 16522,7387 16514,7507 16506,7627 16498,7663 16494,7699 16490,7739 16462,7735 16438,7731 16414,7727 16410,7872 16406,8020 16406,8168 16358,8088 16342,8060 16334,8020 16302,7936 16270,7856 16242,7776 16222,7431 16318,7094 16294,6769 16282,6765 16274,6761 16266,6757 16266,7118 16177,7451 16193,7832 16218,7888 16242,7944 16266,8000 16290,8116 16378,8269 16402,8429 16394,8433 16390,8441 16386,8449 16370,8441 16358,8433 16346,8429 16306,8329 16210,8277 16157,8228 16029,8072 16029,8072 16013,8068 16013,8064 16013,8060 16013,8060 15997,8024 15985,7992 15973,7960 15949,7992 15941,8024 15973,8092 16097,8260 16161,8513 16141,8769 15981,8573 15865,8345 15757,8172 15761,8092 15769,8016 15777,7940 15793,7888 15809,7840 15825,7792 15805,7792 15789,7796 15773,7800 15757,7727 15757,7727 15733,7691 15721,7691 15709,7691 15701,7691 15676,8112 15676,8112 15660,8136 15672,8289 15685,8313 15725,8886 15713,8882 15701,8878 15693,8878 15672,8834 15652,8790 15636,8749 15600,8673 15564,8601 15532,8529 15524,8481 15524,8481 15492,8421 15468,8248 15468,8044 15456,8020 15400,8076 15444,8385 15452,8501 15472,8689 15452,8898 15404,9114 15340,9130 15276,9146 15212,9162 15212,9122 15212,9082 15212,9042 15264,8962 15252,8838 15252,8769 15252,8701 15252,8633 15252,8569 15252,8401 15228,8236 15204,8104 15184,8100 15164,8100 15143,8100 15147,8148 15232,8493 15192,8553 15143,8521 15095,8489 15051,8461 15051,8244 14995,8160 15055,7992 15091,7936 15127,7896 15143,7852 15119,7856 15099,7864 15079,7872 15079,7904 15051,7908 15031,7948 14991,7972 14966,8008 14762,8132 14730,8156 14730,8156 14674,8248 14617,8285 14625,8305 14593,8361 14337,8553 14185,8958 13876,9162 13872,9170 13872,9178 13872,9190 13732,9234 13732,9234 13499,9282 13499,9258 13499,9234 13503,9214 13611,9174 13984,8970 14012,8854 13948,8854 13844,8946 13832,8990 13607,9102 13311,9262 13231,8942 13115,8942 13187,9162 13211,9234 13579,9603 14092,9074 14329,8794 14337,8790 14345,8790 14353,8790 14353,8778 14353,8769 14353,8761 14397,8717 14397,8717 14613,8381 14678,8309 14678,8309 14690,8269 14746,8196 14734,8200 14814,8180 14818,8345 14818,8345 14802,8589 14569,8653 14417,8645 14449,8942 14497,8942 14505,8970 14593,8990 14593,8729 14513,8697 14794,8697 14854,8822 14662,9242 14573,9395 14433,9483 14173,9559 14024,9547 13976,9535 13928,9523 13880,9511 13920,9455 13972,9455 14028,9395 14100,9383 14565,9371 14513,9162 14377,9162 14088,9299 14028,9383 13956,9407 13888,9435 13820,9463 13712,9503 13315,9699 13235,9679 13247,9623 13259,9631 13291,9611 13391,9543 13391,9543 13407,9519 13335,9519 13327,9527 13279,9551 13042,9607 13042,9607 12766,9647 12758,9655 12750,9663 12746,9675 12694,9699 12694,9715 12666,9771 12630,9808 12646,9956 12646,10052 12590,10088 12541,10080 12525,10104 12485,10108 12445,10116 12409,10124 12421,10016 12421,10016 12409,9988 12317,9988 12293,10100 12285,10164 12265,10164 12245,10164 12229,10164 12221,10108 12213,10052 12205,10000 12157,10000 12157,10000 12133,10016 12133,10096 12149,10248 12012,10216 12008,10204 12004,10192 12004,10184 12044,10144 12044,10120 12048,10076 12028,10072 12012,10072 11996,10072 11984,10072 11972,10072 11964,10072 11864,10228 11788,10180 11680,10112 11543,10144 11547,10248 11399,10208 11383,10084 11415,9996 11423,9896 11443,9872 11443,9872 11447,9828 11559,9799 11748,9836 11872,9747 11872,9739 11872,9735 11872,9731 11772,9731 11551,9743 11507,9675 11511,9631 11515,9591 11519,9551 11503,9551 11487,9551 11475,9551 11435,9539 11395,9527 11355,9515 11339,9431 11311,9379 11307,9331 11343,9319 11355,9286 11367,9254 11419,9210 11435,9166 11523,9146 11608,9226 11668,9351 11780,9475 11792,9471 11808,9471 11824,9471 11824,9463 11828,9455 11832,9447 11712,9319 11668,9226 11636,9110 11612,9094 11592,9078 11572,9066 11572,9014 11572,9014 11600,8930 11588,8926 11576,8922 11568,8922 11503,8986 11459,8970 11411,8934 11411,8769 11523,8834 11568,8701 11580,8677 11628,8661 11644,8641 11664,8637 11684,8633 11708,8629 11720,8641 11736,8653 11752,8665 11820,9094 11824,9431 12361,9387 12409,9359 12457,9331 12509,9303 12541,9335 12541,9331 12618,9351 12618,9375 12622,9399 12626,9423 12774,9351 12838,9242 12930,9130 12954,9114 13042,8974 13046,8954 13070,8930 13094,8906 13119,8882 13163,8838 13159,8782 13167,8729 13231,8665 13207,8637 13179,8589 13026,8609 12898,8641 12770,8597 12766,8589 12762,8581 12758,8573 12722,8561 12686,8549 12654,8541 12606,8393 12638,8365 12690,8248 12698,8244 12706,8240 12714,8240 12730,8252 12746,8265 12766,8277 12746,8489 12746,8489 12758,8561 12978,8461 12814,8393 13090,8373 13127,8425 13143,8493 13187,8549 13207,8533 13227,8521 13247,8509 13303,8337 13523,8212 13708,8212 13784,8365 13423,8445 13371,8461 13335,8565 13335,8565 13343,8597 13680,8537 14012,8461 14265,8208 14265,8329 14165,8525 14112,8649 14076,8705 14048,8713 14048,8814 Z M 14048,8814 L 14048,8814 Z M 12064,5807 C 12064,5735 12064,5662 12068,5594 12173,5570 12245,5510 12289,5402 12337,5330 12341,5270 12349,5202 12429,5001 13143,4805 13363,4773 13656,4628 13924,4416 14261,4396 14265,4412 14269,4432 14273,4452 14028,4516 14056,4612 13960,4825 13852,4993 13680,5294 13652,5494 13652,5550 13656,5606 13660,5662 13712,5686 13732,5699 13776,5803 13792,5807 13808,5811 13824,5819 13784,6095 13684,6292 13483,6504 13239,6572 12998,6640 12758,6708 12345,6708 12133,6143 12064,5871 12064,5847 12064,5827 12064,5807 Z M 12064,5807 L 12064,5807 Z M 13619,5502 C 13599,5434 13535,5462 13519,5462 13459,5550 13447,5658 13443,5795 13459,5815 13507,5823 13547,5859 13551,5887 13539,5963 13607,6007 13619,6015 13632,6023 13644,6035 13652,6031 13660,6027 13668,6023 13668,5947 13660,5887 13648,5847 13624,5771 13624,5739 13628,5695 13624,5630 13619,5566 13619,5502 Z M 13619,5502 L 13619,5502 Z M 15644,15904 C 15584,16005 15432,16085 15340,16141 15304,16025 15452,15912 15496,15824 15496,15812 15496,15804 15500,15796 15560,15796 15576,15772 15656,15820 15660,15860 15660,15860 15644,15904 Z M 15644,15904 L 15644,15904 Z M 15312,15716 C 15204,15716 15107,15900 14979,15920 14979,15848 15087,15712 15127,15672 15135,15632 15135,15632 15216,15504 15228,15504 15240,15504 15256,15504 15376,15532 15456,15596 15312,15716 Z M 15312,15716 L 15312,15716 Z M 16554,15824 C 16554,15644 16614,15508 16811,15540 16811,15632 16634,15784 16554,15824 Z M 16554,15824 L 16554,15824 Z M 11555,14902 C 11808,14902 11680,15195 11519,15195 11495,15247 11383,15263 11343,15255 11343,15171 11399,14963 11463,14946 11491,14902 11491,14914 11555,14902 Z M 11555,14902 L 11555,14902 Z M 11343,14746 C 11247,14826 10998,14838 10902,14854 10950,14706 10962,14662 11103,14606 11119,14542 11275,14550 11347,14606 11351,14646 11359,14686 11367,14726 11359,14730 11351,14738 11343,14746 Z M 11343,14746 L 11343,14746 Z M 12537,10645 C 12517,10573 12501,10505 12485,10437 12477,10433 12469,10433 12461,10433 12457,10421 12457,10409 12457,10397 12437,10272 12389,10304 12425,10184 12433,10184 12445,10184 12457,10184 12481,10168 12505,10152 12529,10136 12537,10140 12545,10144 12557,10152 12569,10152 12642,10148 12686,10212 12710,10236 12718,10260 12746,10345 12738,10353 12734,10361 12730,10373 12730,10401 12686,10569 12646,10569 12626,10601 12606,10633 12590,10665 12569,10657 12553,10649 12537,10645 Z M 12537,10645 L 12537,10645 Z M 11383,9864 C 11375,9864 11371,9864 11367,9868 11355,9928 11343,9992 11335,10056 11243,10108 11159,10164 11075,10176 11075,10080 11191,9864 11223,9799 11327,9799 11327,9799 11367,9820 11371,9832 11375,9848 11383,9864 Z M 11383,9864 L 11383,9864 Z M 11367,9174 C 11363,9182 11359,9190 11355,9202 11351,9210 11347,9222 11347,9234 11319,9246 11291,9258 11267,9274 11259,9278 11251,9282 11247,9290 11207,9282 11171,9278 11135,9274 11135,9266 11135,9258 11135,9250 11123,9250 11115,9250 11107,9250 11107,9066 11207,8902 11411,9022 11415,9030 11419,9042 11423,9054 11435,9062 11435,9062 11439,9110 11415,9130 11391,9150 11367,9174 Z M 11367,9174 L 11367,9174 Z M 11624,8413 C 11632,8417 11644,8421 11656,8425 11660,8617 11640,8581 11507,8589 11507,8617 11507,8645 11507,8673 11507,8685 11507,8697 11507,8713 11471,8757 11471,8757 11439,8769 11259,8749 11255,8629 11319,8521 11443,8473 11443,8473 11455,8453 11455,8445 11455,8437 11455,8429 11483,8405 11483,8405 11487,8381 11527,8381 11572,8381 11616,8381 11616,8389 11620,8401 11624,8413 Z M 11624,8413 L 11624,8413 Z M 11183,6248 C 11191,6224 11199,6200 11207,6175 11267,6083 11243,6111 11343,6095 11491,6095 11672,6179 11563,6384 11499,6408 11435,6432 11375,6456 11351,6460 11351,6460 11207,6408 11207,6384 11199,6372 11171,6356 11167,6320 11167,6284 11167,6252 11171,6248 11175,6248 11183,6248 Z M 11183,6248 L 11183,6248 Z M 16326,14566 C 16302,14393 16394,14289 16518,14205 16538,14205 16558,14205 16578,14205 16578,14205 16570,14393 16614,14393 16606,14417 16602,14446 16598,14474 16538,14514 16522,14574 16486,14646 16474,14666 16462,14690 16454,14714 16414,14722 16414,14722 16362,14758 16346,14694 16346,14694 16354,14566 16342,14566 16334,14566 16326,14566 Z M 16326,14566 L 16326,14566 Z M 11684,6123 C 11467,6055 11495,6035 11495,5863 11555,5662 11652,5658 11776,5847 11776,5923 11776,6003 11780,6083 11756,6103 11700,6123 11684,6123 Z M 11684,6123 L 11684,6123 Z M 11788,5474 C 11876,5386 11952,5394 12004,5554 12008,5574 12012,5594 12016,5614 12012,5630 12008,5646 12008,5666 11852,6011 11764,5670 11756,5506 11764,5494 11776,5482 11788,5474 Z M 11788,5474 L 11788,5474 Z M 12249,5314 C 12233,5354 12217,5394 12205,5434 12201,5446 12201,5458 12201,5474 12149,5486 12141,5498 12121,5530 11904,5370 12129,4897 12309,5165 12293,5214 12277,5262 12265,5314 12257,5314 12253,5314 12249,5314 Z M 12249,5314 L 12249,5314 Z M 17075,4640 C 17047,4640 17019,4640 16995,4640 16931,4632 16867,4628 16807,4624 16514,4620 16514,4620 16234,4592 16097,4548 16105,4172 16037,4103 16017,4015 15997,3927 15977,3839 15921,3783 15945,3727 15945,3695 15977,3703 16009,3711 16045,3719 16045,3723 16045,3727 16045,3731 16181,3811 16105,3803 16105,3983 16214,3983 16278,3959 16338,4103 16330,4139 16322,4176 16314,4212 16298,4300 16298,4300 16306,4380 16474,4392 16646,4408 16819,4424 16831,4420 16843,4416 16855,4412 16867,4372 16883,4332 16899,4292 16891,4268 16883,4244 16879,4224 16799,4172 16763,4180 16711,4172 16694,4127 16694,4127 16706,4079 16759,4071 16811,4063 16867,4059 16867,3967 16891,3911 16899,3847 16947,3819 16947,3819 16963,3823 16971,4027 16971,4027 16987,4079 17147,4103 17147,4103 17175,4119 17167,4144 17163,4172 17159,4200 17095,4200 17035,4200 16975,4204 16967,4260 16963,4316 16959,4372 16959,4380 16963,4392 16967,4404 17015,4420 17059,4432 17147,4440 17183,4440 17219,4440 17256,4440 17284,4444 17312,4452 17340,4460 17360,4452 17380,4448 17400,4444 17476,4236 17428,3979 17688,4083 17704,4079 17720,4075 17736,4071 17732,3943 17732,3943 17749,3887 17817,3851 17857,3815 17953,3815 17953,3871 17540,4512 17448,4661 17264,4648 17171,4657 17139,4644 17115,4640 17095,4640 17075,4640 Z M 17075,4640 L 17075,4640 Z M 15733,9311 C 15729,9270 15729,9230 15729,9194 15749,9174 15749,9174 15793,9170 15793,9154 15793,9142 15793,9130 15801,9130 15813,9130 15825,9130 15845,9114 15917,8974 15929,8950 15953,8950 15981,8954 16009,8958 16009,9002 16009,9050 16009,9098 15985,9170 15961,9242 15937,9315 16005,9315 16033,9274 16073,9226 16145,9218 16218,9210 16290,9202 16314,9138 16414,8794 16534,8834 16578,8918 16626,8982 16662,9114 16955,9595 17724,10725 18490,10493 18538,10477 18662,10429 18698,10373 18746,10325 18771,10276 18783,10232 18706,10240 18718,10296 18682,10353 18562,10397 18562,10397 18478,10445 18434,10441 18390,10437 18350,10433 18438,10381 18522,10272 18570,10196 18602,10164 18602,10164 18614,10108 18550,10076 18506,9992 18498,9976 18470,9944 18470,9944 18438,9932 18438,9799 18237,9671 18181,9611 18089,9407 17821,9335 17801,9250 17708,9198 17636,9130 17596,9082 17368,8814 17308,8597 17256,8309 17256,7655 17749,7475 18201,7138 18266,7054 18330,6970 18394,6886 18422,6749 18422,6749 18450,6684 18494,6672 18542,6616 18578,6580 18730,6500 18811,6464 18915,6312 18871,6256 18847,6248 18823,6248 18706,6368 18710,6384 18562,6428 18610,6360 18610,6360 18678,6204 18634,6151 18634,6151 18626,6115 18638,6103 18638,6103 18771,6107 18863,6039 18951,6003 19083,6003 19095,6191 19095,6191 19087,6228 18999,6316 18951,6436 18863,6524 18939,6524 19019,6428 19091,6376 19139,6292 19139,6292 19179,6175 19179,6099 19179,6099 19191,6063 19336,6195 19279,6484 19111,6608 19107,6620 19103,6632 19103,6644 19292,6592 19708,6444 19829,6284 19833,6248 19837,6212 19841,6175 19917,6187 19917,6220 19917,6324 19841,6516 19219,6737 19059,6801 19055,6809 19055,6817 19055,6825 19428,6825 19945,6440 20257,6244 20257,6516 19885,6648 19680,6725 19580,6757 19480,6793 19384,6830 19344,6838 19308,6846 19271,6854 19271,6862 19275,6870 19279,6882 19320,6874 19360,6870 19404,6866 19404,6858 19404,6854 19404,6850 19556,6813 19556,6813 19684,6757 19841,6704 20061,6588 20237,6588 20069,6870 19580,6789 19392,6978 19540,6982 19676,6922 19853,6986 19881,6994 19929,7066 19985,7122 19989,7114 19993,7110 20001,7106 19973,7010 19937,6966 19893,6958 19873,6934 19857,6910 19841,6890 19905,6882 19969,6878 20033,6874 20113,7078 20161,7323 19877,7427 19849,7423 19821,7419 19792,7419 19945,7283 19949,7210 19853,7062 19556,6990 19344,7074 19115,7235 18951,7255 18799,7206 18662,7178 18674,7214 18742,7251 18819,7287 18835,7363 18835,7363 18831,7523 18771,7543 18714,7567 18658,7591 18634,7499 18602,7439 18570,7391 18314,7134 17837,7467 17652,7627 17632,7655 17616,7687 17600,7719 17592,7719 17584,7719 17576,7719 17416,7956 17288,8052 17360,8349 17432,8385 17584,8325 17660,8269 17708,8265 17757,8265 17809,8265 17817,8285 17817,8285 17801,8301 17656,8329 17564,8449 17564,8609 17604,8609 17672,8461 17688,8433 17761,8381 17977,8285 18009,8453 17688,8481 17688,8633 17704,8926 17769,9022 17769,9022 17841,9098 17925,8926 17620,8625 17989,8553 18069,8633 18065,8765 17961,8870 17973,9078 17973,9078 17961,9134 18129,9315 18129,9315 18262,9491 18458,9527 18594,9527 18779,9387 18831,9375 18831,9375 18939,9375 19139,9443 19171,9719 19452,9719 19604,9683 19716,9667 19752,9495 19797,9343 19744,9194 19720,9074 19656,8854 19504,8709 19404,8565 19332,8549 19243,8485 19219,8469 19215,8493 19211,8517 19207,8541 19436,8661 19544,8790 19672,9074 19708,9182 19728,9343 19720,9495 19696,9527 19672,9563 19648,9599 19568,9623 19320,9727 19320,9623 19564,9483 19588,9463 19572,9190 19496,8990 19235,8617 19083,8569 19075,8689 19123,8874 19047,8990 19027,8986 19011,8986 18995,8986 18943,8878 18963,8806 18939,8753 18923,8641 18923,8641 18903,8621 18903,8569 18903,8521 18903,8473 19003,8437 19095,8389 19223,8389 19227,8377 19231,8369 19239,8361 19187,8285 19135,8273 19107,8236 19095,8152 19083,8068 19075,7988 18959,7768 18795,7735 18895,7499 18951,7499 19163,8004 19219,8116 19316,8252 19412,8389 19508,8525 19552,8521 19552,8521 19572,8501 19612,8557 19632,8657 19652,8753 19829,9006 20165,9391 19869,9687 19688,9779 19512,9820 19344,9844 19271,9844 19199,9844 19131,9844 19075,9812 19075,9812 19043,9808 19043,10244 19059,10393 18686,10641 18362,10773 18177,10817 17877,10697 17917,10902 17825,11198 17648,11314 17672,11443 17700,11575 17728,11707 17736,11747 17745,11791 17753,11835 17781,11823 17801,11607 17801,11599 17817,11595 17833,11595 17849,11595 17849,11687 17909,12112 17668,12068 17652,12052 17640,12004 17568,11916 17560,11908 17552,11904 17548,11900 17524,11932 17500,11964 17480,11996 17456,11988 17436,11980 17416,11976 17416,12068 17420,12120 17348,12204 17368,12316 17572,12421 17544,12553 17520,12549 17500,12549 17480,12549 17404,12497 17352,12405 17284,12421 17284,12449 17360,12549 17440,12569 17468,12625 17588,12633 17588,12773 17484,12753 17484,12753 17268,12681 17272,12721 17276,12761 17284,12801 17360,12837 17436,12873 17512,12914 17704,12906 17889,12865 18105,12865 18041,13026 17676,13130 17532,13178 17532,13230 17861,13162 17917,13154 18201,12954 18430,12729 18714,12521 18726,12525 18738,12529 18750,12537 18750,12617 18526,12817 18466,12889 18326,13138 18205,13206 17921,13311 17817,13600 17632,13908 17440,14173 17356,14317 17199,14470 17095,14618 17111,14642 17131,14662 17187,14646 17223,14454 17436,14345 17496,14165 17612,14013 17612,14013 17700,13933 17712,13933 17724,13937 17741,13941 17745,13953 17749,13965 17757,13981 17572,14289 17396,14606 17183,14894 17107,15067 17071,15219 17059,15427 17023,15419 17023,15419 16979,15371 16855,15379 16715,15367 16626,15339 16586,15367 16566,15411 16474,15492 16322,15568 16350,15828 16073,15768 15981,15824 15933,15972 15801,15972 15781,15840 15693,15764 15676,15696 15636,15696 15596,15700 15556,15704 15556,15688 15556,15676 15556,15664 15668,15620 15773,15576 15925,15564 16049,15532 16189,15520 16254,15403 16226,15407 16198,15411 16173,15419 16173,15451 15929,15524 15925,15524 15725,15516 15709,15540 15548,15580 15496,15544 15496,15544 15456,15488 15324,15443 15324,15443 15288,15415 15284,15399 15284,15383 15284,15367 15588,15367 15885,15379 16214,15271 16214,15259 16214,15247 16218,15239 15949,15295 15660,15367 15412,15287 15412,15271 15412,15255 15412,15243 15604,15171 15805,15215 16045,15147 16117,15107 16189,15071 16266,15035 16266,14979 16318,14967 16338,14934 16398,14886 16398,14886 16518,14734 16570,14678 16626,14622 16682,14570 16743,14365 16807,14161 16871,13957 16875,13788 16875,13788 16895,13652 16899,13648 16907,13644 16915,13644 16915,13576 16915,13508 16919,13440 16919,13395 16923,13351 16927,13311 16915,13315 16903,13319 16895,13323 16895,13347 16895,13375 16895,13403 16883,13480 16875,13560 16867,13640 16847,13648 16847,13648 16686,13864 16698,13720 16698,13720 16735,13564 16731,13528 16727,13492 16727,13456 16682,13476 16686,13568 16678,13632 16670,13656 16662,13684 16654,13712 16598,13852 16522,14069 16378,14141 16386,14081 16394,14021 16406,13961 16330,14001 16238,14105 16181,14181 15997,14253 15765,14397 15580,14397 15572,14405 15564,14413 15560,14421 15632,14446 15632,14446 15701,14490 15660,14578 15544,14702 15468,14742 15464,14682 15464,14622 15464,14562 15360,14578 15360,14578 15320,14570 15320,14377 15436,14317 15592,14261 15592,14249 15592,14241 15592,14233 15681,14217 15681,14217 15765,14181 15813,14153 15865,14125 15917,14101 15989,14057 16061,14017 16133,13977 16133,13937 16262,13888 16294,13848 16278,13824 16278,13824 16274,13744 16290,13548 16446,13359 16422,13198 16414,13190 16406,13186 16398,13182 16362,13323 16330,13456 16218,13580 16181,13560 16173,13532 16145,13504 16153,13424 16218,13307 16254,13263 16306,13190 16290,13110 16266,13062 16246,12950 16242,12873 16254,12789 16250,12749 16246,12713 16246,12677 16246,12637 16250,12597 16254,12561 16250,12553 16246,12545 16246,12537 16246,12489 16250,12445 16254,12401 16254,12393 16254,12385 16258,12376 16310,12220 16310,12220 16374,12096 16414,12056 16430,11928 16434,11896 16438,11896 16442,11896 16446,11896 16466,11876 16466,11876 16546,11667 16574,11635 16574,11635 16578,11587 16546,11591 16514,11599 16486,11607 16478,11599 16474,11595 16470,11591 16482,11535 16486,11210 16474,11206 16438,11186 16438,11186 16378,11094 16346,11094 16346,11094 16346,11078 16266,10990 16045,10809 16093,10725 16294,10717 16430,10898 16558,11070 16582,11202 16598,11499 16614,11515 16634,11455 16658,11395 16682,11334 16646,11026 16406,10437 16117,10365 16129,10409 16246,10557 16226,10625 15945,10625 15516,10425 15284,10353 15284,10341 15284,10333 15284,10325 15228,10308 15176,10296 15123,10284 15099,10232 14786,10140 14730,10112 14730,10100 14730,10092 14730,10084 14674,10060 14674,10060 14541,9952 14493,9836 14493,9836 14449,9771 14397,9703 14409,9691 14409,9651 14449,9643 14429,9627 14501,9643 14509,9683 14517,9727 14529,9771 14601,9751 14674,9731 14750,9711 14778,9703 14806,9695 14834,9687 14838,9675 14842,9663 14846,9655 14822,9639 14798,9623 14774,9611 14670,9547 14629,9535 14597,9455 14645,9439 14698,9427 14750,9415 14934,9563 14926,9547 14987,9379 15083,9343 15244,9242 15364,9270 15388,9395 15388,9395 15408,9415 15424,9407 15440,9403 15456,9399 15452,9371 15452,9343 15452,9319 15496,9295 15496,9295 15556,9286 15572,9319 15604,9479 15717,9423 15721,9383 15725,9347 15733,9311 Z M 15733,9311 L 15733,9311 Z M 15612,14914 C 15592,14906 15592,14906 15552,14842 15520,14842 15488,14842 15456,14842 15408,14822 15408,14822 15384,14794 15380,14770 15376,14746 15376,14722 15384,14722 15392,14722 15404,14722 15404,14694 15404,14666 15404,14642 15340,14650 15320,14650 15284,14686 15260,14682 15240,14678 15220,14674 15216,14562 15212,14450 15212,14341 15244,14321 15276,14301 15308,14281 15304,14269 15300,14257 15296,14245 15159,14245 15127,14277 15023,14321 14906,14349 14874,14285 14798,14261 14529,14373 14217,14486 13960,14566 13788,14622 13788,14622 13776,14642 13796,14678 13796,14678 13828,14694 14120,15079 14493,15351 14934,15616 14966,15624 14987,15652 15015,15664 15039,15616 15039,15616 15083,15568 15176,15459 15164,15387 15224,15299 15316,15263 15352,15195 15432,15163 15432,15155 15432,15147 15436,15143 15644,15123 15644,15123 15644,15135 15753,15135 15841,15143 15965,15087 15969,15071 15973,15059 15977,15047 16021,15031 16065,15019 16113,15007 16129,14991 16145,14979 16165,14967 16165,14959 16165,14950 16165,14942 16189,14930 16218,14922 16246,14914 16230,14880 16218,14845 16207,14810 L 16202,14805 C 16132,14788 16085,14714 16085,14686 16053,14654 16025,14622 15997,14590 15925,14610 15853,14630 15785,14650 15769,14754 15821,14922 15761,15043 15664,15047 15592,15047 15592,14979 15616,14954 15616,14934 15612,14914 Z M 15612,14914 L 15612,14914 Z M 18350,6416 C 18338,6372 18326,6328 18318,6284 18282,6123 18282,6123 18249,6067 18249,6027 18254,5987 18258,5947 18290,5678 18474,5546 18658,5795 18779,5799 18779,5799 18923,5775 18955,5775 19251,5791 19279,5747 19296,5743 19312,5743 19332,5743 19444,5691 19444,5691 19464,5666 19580,5594 19797,5418 19901,5650 19805,5915 19825,5923 19572,5983 19564,6003 19560,6023 19556,6047 19668,6139 19668,6139 19692,6175 19676,6216 19664,6260 19652,6304 19648,6304 19644,6304 19640,6308 19556,6320 19556,6320 19492,6308 19308,6163 19235,5983 19119,5847 19095,5851 19071,5855 19051,5863 18987,5863 18923,5899 18903,5947 18899,5947 18895,5951 18891,5955 18787,5955 18682,5955 18582,5955 18382,5927 18378,5939 18410,6115 18414,6171 18422,6228 18430,6284 18434,6272 18438,6260 18446,6248 18466,6280 18414,6372 18398,6416 18382,6416 18366,6416 18350,6416 Z M 18350,6416 L 18350,6416 Z M 17648,7030 C 17696,6898 17765,6785 17801,6656 17805,6656 17813,6656 17821,6656 17821,6644 17821,6636 17821,6628 17829,6628 17837,6628 17849,6628 17853,6576 17853,6576 17873,6552 17893,6568 17913,6584 17937,6604 17957,6708 17981,6737 18017,6886 17989,6922 17873,6998 17736,7110 17696,7118 17656,7126 17620,7138 17628,7102 17636,7066 17648,7030 Z M 17648,7030 L 17648,7030 Z M 15332,6388 C 15352,6392 15372,6396 15396,6404 15436,6372 15480,6340 15524,6308 15608,6284 15608,6284 15965,6256 15969,6264 15973,6272 15977,6284 15861,6284 15781,6320 15697,6348 15488,6452 15280,6556 15075,6664 14995,6656 14954,6656 14926,6628 14958,6496 15208,6308 15332,6388 Z M 15332,6388 L 15332,6388 Z M 14293,6938 C 14161,6886 14040,6825 13960,6757 13960,6745 13872,6692 13800,6668 13708,6600 13619,6540 13591,6472 13615,6444 13615,6444 13644,6436 13800,6216 13896,5658 14161,5658 14161,5670 14165,5686 14169,5703 14169,5815 14169,5931 14173,6047 14177,6047 14185,6051 14193,6055 14205,6063 14217,6075 14229,6087 14229,6091 14229,6099 14229,6107 14245,6107 14261,6107 14281,6107 14281,6087 14285,6067 14289,6051 14309,6047 14329,6043 14349,6043 14349,6067 14349,6083 14389,6107 14413,6139 14413,6139 14509,6187 14509,6200 14513,6212 14517,6228 14605,6252 14702,6264 14810,6276 14802,6324 14790,6424 14722,6424 14654,6356 14617,6328 14573,6308 14493,6360 14513,6468 14513,6568 14505,6660 14497,6753 14493,6846 14481,6846 14481,6846 14481,6926 14469,6926 14469,6926 14469,6886 14453,6886 14453,6886 14441,6922 14429,6922 14417,6922 14409,6922 14405,6930 14401,6938 14401,6950 14377,6950 14353,6950 14333,6950 14317,6946 14305,6942 14293,6938 Z M 14293,6938 L 14293,6938 Z M 13279,8128 C 13275,8108 13271,8088 13267,8072 13287,8080 13311,8088 13335,8096 13339,8104 13343,8116 13347,8128 13323,8128 13299,8128 13279,8128 Z M 13279,8128 L 13279,8128 Z M 13307,7960 C 13307,7800 13315,7695 13363,7563 13423,7563 13471,7896 13307,7960 Z M 13307,7960 L 13307,7960 Z M 11984,15083 C 11940,15071 11896,15059 11852,15047 11852,15035 11852,15027 11852,15019 12169,14954 12169,14954 12205,14959 12161,15047 12056,15063 11984,15083 Z M 11984,15083 L 11984,15083 Z M 18101,9194 C 17985,8998 18145,8838 18121,8661 18049,8517 18037,8529 18089,8409 18001,8124 17648,8104 17460,8252 17444,8252 17432,8252 17420,8252 17416,8192 17416,8132 17416,8072 17512,7920 17596,7804 17704,7659 17857,7571 18005,7427 18189,7403 18266,7539 18342,7675 18422,7812 18458,7824 18486,7812 18570,7812 18630,7924 18767,8088 18746,8265 18718,8305 18690,8349 18662,8393 18646,8393 18634,8393 18622,8393 18622,8401 18622,8409 18622,8421 18606,8421 18590,8425 18578,8429 18570,8445 18562,8461 18558,8481 18506,8501 18454,8509 18470,8585 18578,8749 18638,8994 18851,9150 18903,9150 18955,9150 19011,9154 19015,9142 19019,9130 19023,9122 19079,9074 19135,8998 19179,8930 19211,8930 19243,8930 19279,8930 19279,8942 19284,8958 19288,8974 19300,8978 19312,8986 19324,8994 19400,9138 19448,9210 19436,9415 19380,9447 19255,9547 19207,9531 18991,9206 18851,9190 18602,9419 18249,9463 18306,9351 18101,9194 Z M 18101,9194 L 18101,9194 Z M 16939,8729 C 16955,8705 16975,8681 16995,8661 17119,8882 17248,9086 17496,9250 17540,9290 17656,9419 17761,9451 17785,9551 18205,9795 18362,9884 18378,9912 18418,10024 18482,10044 18486,10060 18494,10076 18502,10092 18454,10232 18394,10272 18249,10325 18068,10315 18046,10247 17961,10333 17813,10284 17516,10148 17480,10032 17472,10032 17464,10032 17456,10032 17432,9964 17376,9956 17360,9952 17340,9892 17191,9743 17187,9739 17175,9715 17167,9691 17159,9671 17151,9671 17143,9671 17135,9671 17003,9467 16871,9286 16743,9134 16763,8978 16911,8874 16939,8729 Z M 16939,8729 L 16939,8729 Z M 13139,13532 C 13131,13399 13123,13267 13115,13134 13171,13134 13227,13134 13287,13138 13299,13279 13299,13279 13319,13319 13355,13319 13391,13319 13427,13323 13411,13480 13411,13480 13391,13544 13359,13620 13331,13700 13303,13780 13191,13752 13159,13596 13139,13532 Z M 13139,13532 L 13139,13532 Z M 15917,13684 C 15861,13568 15793,13544 15757,13460 15644,13399 15456,13307 15372,13307 15228,13452 15015,13122 14930,13090 14838,12950 14838,12509 15011,12477 15011,12425 15192,12364 15256,12332 15360,12236 15432,12240 15592,12200 15681,12192 15769,12184 15857,12176 15965,12172 16073,12168 16181,12164 16169,12248 16161,12332 16153,12417 16145,12417 16137,12421 16133,12425 16133,12505 16133,12585 16133,12669 16133,12817 16133,12970 16133,13122 16133,13154 16153,13226 16125,13283 16101,13343 16077,13408 16053,13472 16013,13472 15989,13636 15917,13684 Z M 15917,13684 L 15917,13684 Z M 13038,10172 C 13066,10072 13062,10092 13131,10036 13375,9964 13619,9892 13864,9820 13964,9820 14181,10060 14313,10124 14313,10321 15524,10701 15640,10741 15757,10809 15757,10809 15885,10918 15885,10930 15885,10942 15885,10958 15893,10958 15901,10958 15913,10958 15909,10978 15905,11002 15901,11026 15853,11042 15809,11058 15765,11078 15192,11214 14581,11355 14040,11527 13972,11531 13904,11539 13840,11547 13840,11555 13840,11563 13840,11575 13587,11575 13387,11843 13259,12036 13255,12040 13251,12044 13247,12048 13239,12064 13235,12080 13231,12096 13139,12096 13094,12240 13042,12224 12938,11900 12994,11659 13042,11363 13038,10966 13038,10569 13038,10172 Z"/>
        </g>
       </g>
       <g class="com.sun.star.drawing.ClosedBezierShape">
        <g id="id5">
         <rect class="BoundingBox" stroke="none" fill="none" x="17961" y="10288" width="291" height="58"/>
        </g>
       </g>
       <g class="com.sun.star.drawing.ClosedBezierShape">
        <g id="id6">
         <rect class="BoundingBox" stroke="none" fill="none" x="11017" y="4317" width="7917" height="7926"/>
         <path fill="rgb(27,25,24)" stroke="none" d="M 15465,7958 C 15465,7854 15444,7794 15533,7766 15509,7830 15485,7894 15465,7958 Z M 15465,7958 L 15465,7958 Z M 11075,8841 C 11055,8829 11035,8821 11019,8813 11019,8753 11000,8669 11075,8693 11091,8709 11111,8801 11123,8869 11079,8853 11079,8853 11075,8841 Z M 11075,8841 L 11075,8841 Z M 15974,7826 C 15925,7778 15986,7626 15998,7582 16002,7578 16006,7574 16014,7574 16002,7714 16002,7714 15974,7826 Z M 15974,7826 L 15974,7826 Z M 14495,7678 C 14519,7630 15072,7373 15104,7381 15104,7389 15104,7401 15104,7413 14895,7493 14695,7658 14495,7678 Z M 14495,7678 L 14495,7678 Z M 15885,7590 C 15885,7457 15937,7345 15965,7237 15986,7237 16006,7237 16026,7237 15990,7337 15961,7497 15885,7590 Z M 15885,7590 L 15885,7590 Z M 15052,7165 C 15168,7101 15168,7101 15192,7101 15132,7173 15048,7249 14964,7277 14992,7217 15024,7209 15052,7165 Z M 15052,7165 L 15052,7165 Z M 16174,6616 C 16198,6423 16338,6375 16418,6243 16442,6251 16466,6263 16495,6275 16503,6259 16511,6243 16519,6231 16539,6227 16563,6227 16587,6227 16587,6231 16591,6239 16595,6247 16487,6391 16322,6524 16174,6616 Z M 16174,6616 L 16174,6616 Z M 16747,5586 C 16703,5638 16659,5690 16619,5742 16603,5742 16591,5742 16579,5742 16587,5666 16647,5417 16679,5401 16683,5413 16687,5429 16695,5446 16671,5470 16679,5518 16683,5586 16703,5586 16723,5586 16747,5586 Z M 16747,5586 L 16747,5586 Z M 16775,5566 C 16799,5466 16795,5490 16891,5478 16891,5498 16891,5518 16895,5542 16855,5550 16815,5558 16775,5566 Z M 16775,5566 L 16775,5566 Z M 15717,5193 C 15665,5113 15597,5105 15533,5073 15529,5041 15525,5009 15525,4981 15705,4985 15789,4969 15845,4981 15845,5013 15845,5049 15845,5085 15769,5113 15773,5181 15717,5193 Z M 15717,5193 L 15717,5193 Z M 11824,12180 C 11885,12135 11877,12103 11881,12059 11889,12055 11897,12055 11909,12055 11893,12007 11881,11959 11869,11915 11792,11931 11768,11947 11716,11995 11708,12011 11704,12027 11700,12043 11732,12091 11764,12140 11796,12188 11804,12184 11812,12180 11824,12180 Z M 11824,12180 L 11824,12180 Z M 12089,12027 C 12173,12043 12225,12031 12357,12023 12357,12039 12361,12055 12366,12075 12281,12091 12201,12107 12121,12123 12109,12091 12097,12059 12089,12027 Z M 12089,12027 L 12089,12027 Z M 12698,11735 C 12702,11610 12714,11498 12698,11414 12662,11406 12626,11402 12594,11398 12594,11382 12594,11370 12594,11358 12654,11362 12714,11366 12778,11370 12778,11458 12774,11659 12698,11735 Z M 12698,11735 L 12698,11735 Z M 12165,11033 C 12161,11013 12157,10993 12153,10973 12049,10945 11949,10917 11877,10909 11873,10897 11869,10885 11869,10877 11965,10861 12057,10873 12189,10933 12189,10961 12193,10993 12197,11025 12185,11025 12173,11029 12165,11033 Z M 12165,11033 L 12165,11033 Z M 11664,8079 C 11620,7998 11544,7870 11556,7818 11564,7822 11740,8027 11664,8079 Z M 11664,8079 L 11664,8079 Z M 11215,7858 C 11179,7794 11183,7794 11191,7750 11231,7750 11259,7750 11255,7842 11239,7846 11227,7850 11215,7858 Z M 11215,7858 L 11215,7858 Z M 11696,7766 C 11664,7746 11632,7730 11600,7714 11592,7638 11576,7638 11604,7594 11644,7614 11720,7650 11732,7758 11720,7758 11708,7762 11696,7766 Z M 11696,7766 L 11696,7766 Z M 11243,7658 C 11191,7642 11191,7618 11183,7598 11195,7582 11207,7566 11219,7554 11235,7558 11251,7562 11271,7566 11283,7602 11283,7602 11275,7646 11263,7650 11251,7654 11243,7658 Z M 11243,7658 L 11243,7658 Z M 11456,7445 C 11468,7377 11484,7309 11500,7241 11512,7237 11524,7237 11536,7237 11520,7385 11520,7385 11484,7506 11468,7586 11452,7666 11436,7750 11420,7750 11404,7750 11392,7750 11400,7622 11388,7514 11456,7445 Z M 11456,7445 L 11456,7445 Z M 11624,7506 C 11612,7417 11612,7417 11624,7405 11640,7409 11656,7413 11672,7421 11672,7441 11672,7461 11672,7481 11656,7489 11640,7497 11624,7506 Z M 11624,7506 L 11624,7506 Z M 11336,7269 C 11275,7209 11299,7189 11295,7129 11315,7133 11336,7141 11356,7149 11348,7265 11348,7265 11336,7269 Z M 11336,7269 L 11336,7269 Z M 12646,6484 C 12454,6419 12606,6107 12646,6031 12766,6019 13072,5975 13184,5886 13196,5854 13208,5822 13220,5794 13248,5794 13276,5794 13308,5798 13308,5890 13320,5999 13417,6095 13384,6395 13288,6419 13028,6403 12971,6459 12702,6484 12646,6484 Z M 12646,6484 L 12646,6484 Z M 13621,5502 C 13621,5566 13625,5630 13629,5694 13625,5738 13625,5770 13649,5846 13701,6035 13665,6034 13650,6041 13634,6041 13608,6014 13609,6007 13541,5963 13553,5886 13549,5858 13509,5822 13461,5814 13445,5794 13449,5658 13461,5550 13521,5462 13537,5462 13601,5433 13621,5502 Z M 13621,5502 L 13621,5502 Z M 12979,5674 C 13052,5662 13052,5662 13108,5670 13080,5718 12967,5882 12907,5862 12931,5806 12955,5750 12979,5694 12838,5770 12690,5834 12554,5842 12522,5822 12510,5798 12434,5762 12422,5550 12422,5550 12430,5462 12442,5462 12458,5466 12474,5470 12482,5522 12490,5574 12498,5626 12510,5626 12522,5630 12534,5634 12546,5538 12550,5425 12594,5357 12710,5361 12790,5437 12870,5313 12895,5313 12923,5313 12951,5317 12991,5381 12995,5417 12979,5534 12995,5534 13012,5534 13028,5534 13012,5578 12995,5626 12979,5674 Z M 12979,5674 L 12979,5674 Z M 13000,5233 C 12927,5161 13012,5109 13036,5073 13064,5069 13092,5065 13120,5061 13112,5173 13116,5217 13000,5233 Z M 13000,5233 L 13000,5233 Z M 13769,4985 C 13661,4916 13641,4852 13649,4784 13697,4752 13789,4660 13877,4696 13801,4904 13789,4969 13769,4985 Z M 13769,4985 L 13769,4985 Z M 18764,5261 C 18768,5249 18772,5237 18776,5229 18788,5225 18800,5221 18812,5221 18812,5209 18812,5201 18812,5193 18864,5165 18864,5165 18900,5161 18852,5221 18824,5241 18764,5261 Z M 18764,5261 L 18764,5261 Z M 18503,4343 C 18640,4312 18764,4292 18932,4383 18812,4355 18772,4343 18692,4343 18692,4335 18692,4327 18692,4319 18664,4319 18636,4319 18612,4319 18612,4327 18612,4335 18612,4343 18576,4343 18539,4343 18503,4343 Z M 18503,4343 L 18503,4343 Z M 15477,10192 C 15400,10160 15324,10128 15252,10096 15248,10075 15244,10055 15240,10035 15344,10063 15448,10096 15557,10128 15561,10136 15565,10144 15569,10152 15529,10180 15529,10180 15477,10192 Z M 15477,10192 L 15477,10192 Z M 15292,9671 C 15336,9655 15384,9643 15432,9631 15432,9639 15436,9647 15440,9659 15336,9735 15336,9735 15312,9775 15360,9871 15577,9767 15665,9743 15669,9751 15673,9763 15677,9775 15617,9795 15617,9795 15497,9867 15497,9875 15497,9883 15497,9895 15521,9907 15545,9919 15569,9935 15549,9975 15529,9991 15485,9991 15485,9891 15256,9819 15236,9755 15168,9707 15024,9599 15012,9562 15132,9526 15132,9526 15168,9534 15156,9546 15148,9562 15140,9579 15148,9611 15196,9647 15204,9667 15232,9667 15260,9667 15292,9671 Z M 15292,9671 L 15292,9671 Z M 15016,9863 C 15040,9867 15064,9875 15092,9883 15092,9915 15092,9947 15092,9983 15044,9983 15044,9983 15012,9963 14803,9863 14803,9863 14787,9839 14847,9759 14903,9819 15016,9863 Z M 15016,9863 L 15016,9863 Z M 16519,9202 C 16511,9170 16503,9138 16495,9106 16503,9094 16511,9086 16519,9078 16551,9134 16551,9134 16559,9202 16543,9202 16531,9202 16519,9202 Z M 16519,9202 L 16519,9202 Z M 18768,10256 C 18712,10083 18672,9890 18620,9721 18744,9757 18900,10123 18768,10256 Z M 18768,10256 L 18768,10256 Z M 12866,5646 C 12822,5714 12750,5702 12706,5694 12702,5682 12698,5674 12694,5666 12726,5634 12794,5646 12866,5646 Z M 12866,5646 L 12866,5646 Z M 12678,5554 C 12642,5518 12666,5478 12670,5462 12690,5466 12714,5470 12738,5478 12738,5494 12738,5510 12738,5526 12718,5534 12698,5542 12678,5554 Z M 12678,5554 L 12678,5554 Z M 13100,6283 C 12870,6247 13004,6031 13240,6147 13240,6175 13240,6207 13240,6239 13204,6263 13204,6263 13100,6283 Z M 13100,6283 L 13100,6283 Z M 11905,11899 C 11909,11883 11917,11867 11925,11855 11961,11851 11997,11847 12033,11843 12033,11879 12033,11919 12037,11959 12001,11975 11969,11975 11953,11975 11937,11947 11921,11923 11905,11899 Z M 11905,11899 L 11905,11899 Z M 11929,12059 C 11929,12063 11929,12071 11929,12079 11925,12107 11921,12135 11917,12168 11893,12180 11869,12192 11844,12208 11820,12228 11780,12248 11748,12240 11720,12192 11692,12144 11668,12099 11664,12087 11660,12075 11656,12067 11568,11915 11680,11931 11792,11843 11788,11815 11784,11787 11784,11759 11716,11759 11648,11839 11604,11827 11604,11811 11604,11799 11604,11787 11640,11763 11676,11739 11716,11719 11716,11691 11716,11663 11720,11635 11656,11651 11612,11671 11568,11659 11564,11643 11564,11631 11564,11618 11624,11598 11684,11578 11744,11558 11744,11542 11748,11526 11752,11514 11780,11558 11913,11562 11997,11570 12005,11602 12013,11635 12025,11667 11881,11635 11881,11635 11836,11643 11840,11695 11836,11735 11881,11811 11933,11795 11981,11763 12057,11775 12081,11843 12085,11919 12089,12019 11961,12039 11961,12039 11929,12059 Z"/>
        </g>
       </g>
      </g>
     </g>
    </g>
   </g>
  </g>
 </g>
</svg>